<svg version="1.1" id="Layer_1" xmlns="http://www.w3.org/2000/svg" xmlns:xlink="http://www.w3.org/1999/xlink" x="0px" y="0px"
	 width="100%" viewBox="0 0 225 225" enable-background="new 0 0 225 225" xml:space="preserve">
<path fill="#FAFBFD" opacity="1.000000" stroke="none" 
	d="
M155.000000,226.000000 
	C103.333336,226.000000 52.166672,226.000000 1.000007,226.000000 
	C1.000005,151.000000 1.000005,76.000015 1.000002,1.000017 
	C75.999992,1.000011 150.999985,1.000011 225.999969,1.000006 
	C225.999985,75.999985 225.999985,150.999969 226.000000,225.999969 
	C202.500000,226.000000 179.000000,226.000000 155.000000,226.000000 
M145.284637,164.689178 
	C145.487595,164.140961 145.690536,163.592743 146.449417,162.785370 
	C146.855591,162.790573 147.261749,162.795776 148.642700,162.895523 
	C158.135727,162.921356 167.632355,163.078918 177.117630,162.820175 
	C178.425598,162.784500 179.677277,160.685562 180.955017,159.541824 
	C179.665009,158.696075 178.413300,157.199188 177.078186,157.120697 
	C172.098404,156.827911 167.075043,157.228256 162.103287,156.873856 
	C160.380112,156.751022 158.759537,155.188919 157.092102,154.284195 
	C158.825638,153.188904 160.454422,151.441650 162.315887,151.142563 
	C165.563904,150.620712 168.995529,151.293777 172.269257,150.857895 
	C173.897308,150.641159 175.345795,149.075745 176.875519,148.120438 
	C175.424896,147.090012 174.074280,145.843002 172.486420,145.109772 
	C171.522522,144.664688 170.083145,145.311005 169.052460,144.933853 
	C167.639038,144.416687 166.410675,143.393738 165.103012,142.587540 
	C166.475220,141.718201 167.797363,140.211411 169.229004,140.098984 
	C173.533539,139.760986 177.896011,140.158447 182.199951,139.816589 
	C183.198257,139.737289 184.574631,137.953232 184.787079,136.775085 
	C184.922958,136.021713 183.400146,134.464676 182.340118,134.111969 
	C180.500320,133.499802 178.330627,133.858383 176.510773,133.213257 
	C174.929764,132.652817 173.641281,131.267212 172.223526,130.246262 
	C173.925446,129.495956 175.601990,128.175812 177.333893,128.098663 
	C183.318176,127.832146 189.338150,128.246918 195.308121,127.851822 
	C197.138809,127.730652 198.852539,125.842369 200.619827,124.763298 
	C198.859268,123.844696 197.166534,122.346161 195.323730,122.130608 
	C191.708405,121.707726 187.993683,122.187920 184.354599,121.882874 
	C183.225769,121.788246 182.208359,120.364449 181.139938,119.549179 
	C181.993332,118.680565 182.714432,117.311317 183.726685,117.043816 
	C186.095139,116.417923 188.655045,116.529274 191.037247,115.938271 
	C192.729248,115.518509 194.257843,114.439972 195.859360,113.655449 
	C194.168442,112.448006 192.601028,110.500748 190.759857,110.193436 
	C187.355698,109.625252 183.772598,110.217346 180.304245,109.894371 
	C179.190186,109.790611 178.202682,108.327797 177.157288,107.486748 
	C178.216324,106.663872 179.225891,105.220047 180.343384,105.131065 
	C184.150726,104.827881 188.021652,105.252998 191.813965,104.866669 
	C193.264694,104.718880 194.568848,103.132095 195.939804,102.201065 
	C194.583755,101.137978 193.292465,99.273842 191.859848,99.158058 
	C187.060699,98.770210 182.211060,98.999733 177.380768,99.007080 
	C174.430573,99.011566 172.138641,98.307510 172.321243,94.247337 
	C175.525803,93.826218 178.662918,93.631516 181.684235,92.934723 
	C183.475143,92.521683 185.083359,91.316406 186.773712,90.467354 
	C184.976486,89.320549 183.262115,87.382515 181.365616,87.183968 
	C176.752365,86.700996 172.042282,87.214981 167.398087,86.913345 
	C165.942093,86.818779 164.571823,85.404495 163.162308,84.594284 
	C164.511902,83.726807 165.776520,82.333466 167.228394,82.098824 
	C170.479813,81.573364 173.886292,81.935493 177.102173,81.295616 
	C178.487961,81.019890 179.557678,79.155624 180.770996,78.013023 
	C179.098221,77.538895 177.441879,76.730865 175.749847,76.647484 
	C167.707687,76.251122 159.430527,79.250259 151.668442,74.881523 
	C150.646652,74.306419 149.576675,73.816879 148.529022,73.287720 
	C149.705383,72.244598 150.746384,70.589478 152.087845,70.292747 
	C154.476410,69.764404 157.096863,70.342552 159.524765,69.915123 
	C161.378677,69.588753 163.085022,68.424210 164.857010,67.632515 
	C163.349609,66.519608 161.968201,65.117950 160.293976,64.387306 
	C159.009232,63.826633 157.355576,64.040756 155.865402,64.033607 
	C149.702759,64.004051 143.531342,64.201347 137.382446,63.909195 
	C135.594238,63.824230 133.870178,62.389389 132.116714,61.573322 
	C133.523544,60.685581 135.072403,59.956505 136.294556,58.862442 
	C137.370178,57.899555 138.438553,56.617111 138.766632,55.291733 
	C138.889175,54.796692 136.991455,53.300617 135.868622,53.106297 
	C133.765640,52.742355 131.521027,53.227970 129.402756,52.910442 
	C127.954918,52.693420 126.621376,51.713955 125.236748,51.075363 
	C126.071884,49.787754 126.908844,48.501320 127.741600,47.212170 
	C128.438873,46.132755 129.950455,44.454414 129.676422,44.077610 
	C128.752655,42.807358 127.245903,41.245476 125.867912,41.149639 
	C120.894997,40.803783 115.864380,40.770088 110.899330,41.166599 
	C109.535988,41.275475 108.325325,43.296227 107.044594,44.439663 
	C108.327293,45.291183 109.524246,46.652046 110.911011,46.885513 
	C113.589653,47.336487 116.730888,46.421204 117.985092,51.249664 
	C114.748138,51.848999 111.654938,52.852169 108.541702,52.918747 
	C98.552521,53.132347 88.554657,52.921658 78.563583,53.085213 
	C77.078346,53.109524 75.611656,54.267353 74.136391,54.900776 
	C75.515671,56.256256 76.857063,58.717957 78.281097,58.766727 
	C83.210777,58.935558 83.540932,61.130669 81.103027,64.912163 
	C79.738274,64.945953 78.373512,64.979736 76.476601,64.455360 
	C74.652031,64.331963 72.827469,64.208572 70.252205,64.037086 
	C69.500595,64.053574 68.748993,64.070068 67.297066,64.054840 
	C66.195976,64.376923 65.094879,64.698997 63.540848,65.218956 
	C63.255135,65.413353 63.065899,65.677017 62.688808,66.636185 
	C63.564369,67.770622 64.361214,68.978767 65.336273,70.020027 
	C66.446884,71.206055 67.716484,72.243210 68.916985,73.345062 
	C67.400414,74.227280 65.972878,75.561279 64.345642,75.881966 
	C62.109051,76.322731 59.690899,75.775764 57.410835,76.089798 
	C56.234333,76.251839 55.188148,77.360023 54.083080,78.040703 
	C54.993336,79.164551 55.690083,80.785286 56.866116,81.290611 
	C58.453770,81.972816 60.407589,81.824387 62.208549,81.984398 
	C66.695885,82.383087 67.436028,83.964394 64.245544,87.978844 
	C63.497204,87.981911 62.748863,87.984978 61.100521,87.979210 
	C58.400478,87.980080 55.700439,87.980942 52.250198,87.975052 
	C51.499977,87.977577 50.749760,87.980095 49.429531,87.743202 
	C48.277664,88.143326 47.125793,88.543449 45.312782,89.074753 
	C45.534328,90.065605 45.755875,91.056465 46.582916,92.613480 
	C49.329578,92.747223 52.089615,93.114326 54.819653,92.957901 
	C58.550587,92.744133 60.431320,94.040443 59.344963,98.031151 
	C58.563908,98.367805 57.782852,98.704460 56.066257,99.019608 
	C51.583469,99.019539 47.092579,98.872017 42.623299,99.117699 
	C41.428448,99.183372 40.108574,100.287125 39.265923,101.273109 
	C39.036167,101.541939 40.333344,103.115730 41.478195,104.609528 
	C42.993118,104.739365 44.508045,104.869202 46.028358,105.865288 
	C46.478874,109.142845 45.003616,110.136536 41.797520,110.117828 
	C37.716698,110.094025 33.594894,110.450653 29.576555,111.141945 
	C28.600796,111.309814 27.960768,113.429184 27.166357,114.651222 
	C28.358391,115.291931 29.549807,116.479965 30.742565,116.481308 
	C36.828213,116.488167 42.914211,116.188438 49.666637,116.013611 
	C50.111164,116.012497 50.555687,116.011391 51.726978,116.147987 
	C52.420605,117.670303 53.114231,119.192627 53.807858,120.714943 
	C52.330521,121.147949 50.873337,121.839844 49.371395,121.956757 
	C46.740459,122.161545 44.081520,122.046638 41.435326,122.003548 
	C39.038673,121.964516 36.198082,121.880730 36.571629,125.121750 
	C36.700756,126.242134 39.501194,127.507607 41.258762,127.888481 
	C44.442505,128.578430 47.759373,128.654068 51.000183,129.721008 
	C50.660786,131.132721 50.321384,132.544449 49.129013,133.974869 
	C47.419304,133.986465 45.709599,133.998047 43.111931,133.992584 
	C40.743122,133.998657 38.374313,134.004730 35.335712,133.999054 
	C34.889160,134.003952 34.442612,134.008835 33.561069,134.210602 
	C33.290478,134.405289 33.116066,134.664658 33.017921,135.815643 
	C32.763527,138.781815 34.134254,140.053802 37.092266,139.985809 
	C41.725452,139.879288 46.361961,139.917419 51.665417,139.927368 
	C52.111248,139.916336 52.557083,139.905304 53.932270,139.953278 
	C56.704502,139.960358 59.503960,140.216049 62.242577,139.916153 
	C66.330719,139.468475 67.518944,141.319641 66.071381,144.994476 
	C63.907829,145.002533 61.642467,144.622849 59.616467,145.154800 
	C58.262798,145.510223 57.249626,147.162491 56.084084,148.234421 
	C57.236511,149.150436 58.361679,150.807938 59.546185,150.851486 
	C64.176437,151.021744 68.825455,150.681671 73.209778,150.795502 
	C73.209778,150.795502 73.420227,150.492279 73.282715,150.959213 
	C73.557266,150.825897 73.831818,150.692596 74.787392,150.796799 
	C77.166542,151.237167 79.545700,151.677551 81.958450,152.901047 
	C81.797318,156.034546 80.133904,157.169312 77.047447,157.041885 
	C72.727989,156.863586 68.386421,156.849426 64.075157,157.110123 
	C63.020817,157.173889 61.092148,158.831573 61.220947,159.318924 
	C61.570343,160.641006 62.607197,162.024551 63.762104,162.807571 
	C64.570358,163.355560 66.021088,162.973602 67.184952,162.976425 
	C72.843170,162.990128 78.506638,162.872696 84.154648,163.116486 
	C85.125412,163.158386 86.030464,164.722443 86.965866,165.583374 
	C86.148216,166.387024 85.463524,167.557159 84.483322,167.912735 
	C82.801224,168.522949 80.827621,168.360641 79.181381,169.028183 
	C77.997421,169.508286 77.146881,170.810593 76.147598,171.746140 
	C77.477615,172.643021 78.775185,174.244293 80.143623,174.307327 
	C84.603699,174.512787 89.098412,173.931747 93.562195,174.105515 
	C96.019371,174.201172 98.441284,175.202728 102.335884,176.150299 
	C99.747200,178.320526 98.319542,179.310944 97.164688,180.554672 
	C96.327950,181.455795 95.187485,182.853729 95.400833,183.735229 
	C95.620697,184.643661 97.319565,185.810089 98.365524,185.804367 
	C106.149323,185.761719 113.937965,185.563232 121.707359,185.109695 
	C122.802353,185.045776 123.801056,183.332397 124.844322,182.382492 
	C123.576660,181.589935 122.368240,180.260391 121.029442,180.112701 
	C117.904816,179.768005 114.697746,180.191528 111.565720,179.882233 
	C110.377167,179.764847 109.302933,178.490005 108.176590,177.742737 
	C109.115273,176.777817 109.894188,175.329025 111.027870,174.954681 
	C113.024437,174.295425 115.236427,174.063232 117.360374,174.051819 
	C131.006363,173.978424 144.654160,174.097321 158.297623,173.897232 
	C159.841537,173.874588 161.362076,172.255829 162.893448,171.377197 
	C161.356354,170.262405 159.902420,168.369690 158.264877,168.194641 
	C154.849823,167.829575 151.305405,168.749298 147.873001,168.454910 
	C142.568100,167.999924 137.312531,166.969894 132.970993,166.041321 
	C134.903519,166.016098 136.864334,166.187012 138.761047,165.913467 
	C140.889801,165.606506 142.960617,164.897812 145.284637,164.689178 
M31.180700,127.203476 
	C31.673321,126.556282 32.668282,125.423874 32.582653,125.335220 
	C31.435221,124.147301 30.166517,122.252472 28.869802,122.207443 
	C26.312904,122.118645 23.149221,122.371300 21.336355,123.840164 
	C20.067554,124.868210 20.652502,128.135010 24.048044,127.976273 
	C26.197353,127.875809 28.345806,127.757042 31.180700,127.203476 
M41.959278,145.326675 
	C41.959808,147.111588 41.960339,148.896484 41.960869,150.681396 
	C44.231037,150.600479 46.529037,150.681961 48.747887,150.301666 
	C49.191730,150.225571 49.798317,147.646912 49.539333,147.484756 
	C47.907963,146.463303 46.068447,145.760391 44.261421,145.043732 
	C43.840561,144.876831 43.279373,145.063751 41.959278,145.326675 
M200.232651,110.976761 
	C200.427368,112.891655 200.622086,114.806541 200.816803,116.721436 
	C202.808426,116.123726 205.941696,116.085159 206.563141,114.816360 
	C208.030441,111.820549 205.038666,111.120651 202.803741,110.504639 
	C202.223755,110.344772 201.539383,110.563644 200.232651,110.976761 
M54.822998,162.476639 
	C55.441807,160.934601 56.396603,159.409302 56.474739,157.840317 
	C56.498192,157.369461 53.899757,156.114517 52.821087,156.404404 
	C51.408699,156.783981 50.312366,158.339615 49.080074,159.389359 
	C50.764717,160.530228 52.449356,161.671097 54.822998,162.476639 
M148.415909,54.091881 
	C146.578445,53.643459 144.739700,52.908512 142.904282,52.916740 
	C142.334625,52.919292 141.045197,55.589314 141.339020,55.918262 
	C142.442596,57.153774 144.268036,58.873871 145.437408,58.622032 
	C146.759857,58.337238 147.667542,56.126461 148.415909,54.091881 
M34.784943,104.434105 
	C36.554684,102.380501 36.636570,100.347557 33.953835,99.302460 
	C32.825920,98.863068 30.995913,99.394958 29.873959,100.102203 
	C29.261677,100.488167 29.015203,102.909889 29.375425,103.125740 
	C30.774134,103.963882 32.482212,104.285751 34.784943,104.434105 
M50.230427,68.135338 
	C52.412571,70.879196 54.967091,70.745483 57.336842,68.647690 
	C57.824207,68.216263 57.110554,65.413284 56.946228,65.412888 
	C54.521084,65.406837 51.326466,63.131039 50.230427,68.135338 
z"/>
<path fill="#CFE9FC" opacity="1.000000" stroke="none" 
	d="
M81.916290,64.848991 
	C83.540932,61.130669 83.210777,58.935558 78.281097,58.766727 
	C76.857063,58.717957 75.515671,56.256256 74.136391,54.900780 
	C75.611656,54.267353 77.078346,53.109524 78.563583,53.085213 
	C88.554657,52.921658 98.552521,53.132347 108.541702,52.918747 
	C111.654938,52.852169 114.748138,51.848999 117.985092,51.249664 
	C116.730888,46.421204 113.589653,47.336487 110.911011,46.885513 
	C109.524246,46.652046 108.327293,45.291183 107.044601,44.439663 
	C108.325325,43.296227 109.535988,41.275475 110.899330,41.166599 
	C115.864380,40.770088 120.894997,40.803783 125.867912,41.149639 
	C127.245903,41.245476 128.752655,42.807358 129.676422,44.077610 
	C129.950455,44.454414 128.438873,46.132755 127.741600,47.212170 
	C126.908844,48.501320 126.071884,49.787754 125.236740,51.075363 
	C126.621376,51.713955 127.954918,52.693420 129.402756,52.910442 
	C131.521027,53.227970 133.765640,52.742355 135.868622,53.106297 
	C136.991455,53.300617 138.889175,54.796692 138.766632,55.291733 
	C138.438553,56.617111 137.370178,57.899555 136.294556,58.862442 
	C135.072403,59.956505 133.523544,60.685581 132.116714,61.573326 
	C133.870178,62.389389 135.594238,63.824230 137.382446,63.909195 
	C143.531342,64.201347 149.702759,64.004051 155.865402,64.033607 
	C157.355576,64.040756 159.009232,63.826633 160.293976,64.387306 
	C161.968201,65.117950 163.349609,66.519608 164.857010,67.632515 
	C163.085022,68.424210 161.378677,69.588753 159.524765,69.915123 
	C157.096863,70.342552 154.476410,69.764404 152.087845,70.292747 
	C150.746384,70.589478 149.705383,72.244598 148.529022,73.287720 
	C149.576675,73.816879 150.646652,74.306419 151.668442,74.881523 
	C159.430527,79.250259 167.707687,76.251122 175.749847,76.647484 
	C177.441879,76.730865 179.098221,77.538895 180.770996,78.013016 
	C179.557678,79.155624 178.487961,81.019890 177.102173,81.295616 
	C173.886292,81.935493 170.479813,81.573364 167.228394,82.098824 
	C165.776520,82.333466 164.511902,83.726807 163.162308,84.594284 
	C164.571823,85.404495 165.942093,86.818779 167.398087,86.913345 
	C172.042282,87.214981 176.752365,86.700996 181.365616,87.183968 
	C183.262115,87.382515 184.976486,89.320549 186.773712,90.467354 
	C185.083359,91.316406 183.475143,92.521683 181.684235,92.934723 
	C178.662918,93.631516 175.525803,93.826218 172.321243,94.247337 
	C172.138641,98.307510 174.430573,99.011566 177.380768,99.007080 
	C182.211060,98.999733 187.060699,98.770210 191.859848,99.158058 
	C193.292465,99.273842 194.583755,101.137978 195.939804,102.201065 
	C194.568848,103.132095 193.264694,104.718880 191.813965,104.866669 
	C188.021652,105.252998 184.150726,104.827881 180.343384,105.131065 
	C179.225891,105.220047 178.216324,106.663872 177.157288,107.486748 
	C178.202682,108.327797 179.190186,109.790611 180.304245,109.894371 
	C183.772598,110.217346 187.355698,109.625252 190.759857,110.193436 
	C192.601028,110.500748 194.168442,112.448006 195.859360,113.655449 
	C194.257843,114.439972 192.729248,115.518509 191.037247,115.938271 
	C188.655045,116.529274 186.095139,116.417923 183.726685,117.043816 
	C182.714432,117.311317 181.993332,118.680565 181.139938,119.549179 
	C182.208359,120.364449 183.225769,121.788246 184.354599,121.882874 
	C187.993683,122.187920 191.708405,121.707726 195.323730,122.130608 
	C197.166534,122.346161 198.859268,123.844696 200.619827,124.763306 
	C198.852539,125.842369 197.138809,127.730652 195.308121,127.851822 
	C189.338150,128.246918 183.318176,127.832146 177.333893,128.098663 
	C175.601990,128.175812 173.925446,129.495956 172.223526,130.246262 
	C173.641281,131.267212 174.929764,132.652817 176.510773,133.213257 
	C178.330627,133.858383 180.500320,133.499802 182.340118,134.111969 
	C183.400146,134.464676 184.922958,136.021713 184.787079,136.775085 
	C184.574631,137.953232 183.198257,139.737289 182.199951,139.816589 
	C177.896011,140.158447 173.533539,139.760986 169.229004,140.098984 
	C167.797363,140.211411 166.475220,141.718201 165.103012,142.587540 
	C166.410675,143.393738 167.639038,144.416687 169.052460,144.933853 
	C170.083145,145.311005 171.522522,144.664688 172.486420,145.109772 
	C174.074280,145.843002 175.424896,147.090012 176.875519,148.120438 
	C175.345795,149.075745 173.897308,150.641159 172.269257,150.857895 
	C168.995529,151.293777 165.563904,150.620712 162.315887,151.142563 
	C160.454422,151.441650 158.825638,153.188904 157.092102,154.284195 
	C158.759537,155.188919 160.380112,156.751022 162.103287,156.873856 
	C167.075043,157.228256 172.098404,156.827911 177.078186,157.120697 
	C178.413300,157.199188 179.665009,158.696075 180.955017,159.541824 
	C179.677277,160.685562 178.425598,162.784500 177.117630,162.820175 
	C167.632355,163.078918 158.135727,162.921356 148.105057,162.395401 
	C147.560669,148.310089 147.553940,134.724899 147.935425,121.066864 
	C149.753311,118.888702 149.471024,112.547707 147.773163,110.602623 
	C147.636993,108.867790 147.606064,107.523407 147.936157,105.919434 
	C148.531052,99.050529 148.533020,92.422234 149.072021,85.837906 
	C149.504501,80.554840 148.236694,76.714592 142.684204,75.568993 
	C143.603256,73.084740 144.397079,70.938950 145.190903,68.793159 
	C144.560272,68.348488 143.929657,67.903816 143.299026,67.459145 
	C141.458405,69.352112 139.617783,71.245079 137.352905,73.164322 
	C133.935318,73.439949 130.941986,73.689301 127.528503,73.959503 
	C125.710701,73.871307 124.313034,73.762253 122.775688,73.364326 
	C122.811188,65.809944 122.021530,65.025902 114.664009,65.000488 
	C103.748055,64.962791 92.832191,64.900696 81.916290,64.848991 
z"/>
<path fill="#A4C7D7" opacity="1.000000" stroke="none" 
	d="
M81.509659,64.880577 
	C92.832191,64.900696 103.748055,64.962791 114.664009,65.000488 
	C122.021530,65.025902 122.811188,65.809944 122.387222,73.408936 
	C118.485252,74.238365 115.811760,75.684036 116.038834,80.436546 
	C115.500076,87.721199 116.619827,93.877205 123.126175,97.944458 
	C123.149895,98.113396 123.083450,98.448067 123.023544,98.943977 
	C122.986374,102.960648 123.009125,106.481407 122.970207,110.436035 
	C122.948051,112.908127 122.987556,114.946365 122.964478,117.409309 
	C122.963501,119.259399 123.025108,120.684769 123.014740,122.467934 
	C122.915070,123.558784 122.887360,124.291847 122.789871,125.142532 
	C122.720100,125.260155 122.838394,125.506775 122.529663,125.756645 
	C119.315651,126.974541 116.410370,127.942558 113.189423,129.015762 
	C113.129616,130.011719 113.043831,131.440247 112.636871,132.901520 
	C111.885201,132.929169 111.454712,132.924042 110.841972,132.631348 
	C108.021835,128.782715 104.795059,126.769646 99.730179,128.238495 
	C93.002274,128.070358 86.740227,127.977310 80.478668,128.003418 
	C77.018982,128.017838 74.625839,127.037193 74.916771,122.537292 
	C74.927193,118.721924 74.904747,115.362907 74.909760,111.628059 
	C74.924156,110.499184 74.911087,109.746155 74.931488,108.526299 
	C74.973312,96.486008 74.854851,84.910042 75.081863,73.340858 
	C75.136551,70.553551 76.335838,67.788696 77.008759,65.013519 
	C78.373512,64.979736 79.738274,64.945953 81.509659,64.880577 
M90.948639,88.843681 
	C95.530296,95.092880 101.891541,95.231712 106.891113,88.968163 
	C110.086655,85.538246 110.145233,81.747841 108.338295,77.640495 
	C106.455406,73.360504 102.642754,72.285141 98.644638,72.099586 
	C94.564293,71.910217 90.955940,73.920471 89.443306,77.627289 
	C88.053207,81.033836 86.353203,85.183640 90.948639,88.843681 
M87.671120,114.661560 
	C96.438965,114.999489 105.205841,115.531471 113.975159,115.575340 
	C117.266609,115.591805 119.454765,113.845879 116.955841,109.289711 
	C115.001663,108.518669 113.089546,107.233543 111.085701,107.069603 
	C104.093536,106.497559 97.069649,106.313171 90.575195,105.323753 
	C91.718353,105.199471 92.860916,104.974403 94.004761,104.967781 
	C99.977119,104.933182 105.968124,105.214394 111.911163,104.796227 
	C113.681900,104.671623 116.415390,102.915489 116.789078,101.425659 
	C117.576347,98.286972 114.818741,97.890404 112.290085,97.898689 
	C102.950012,97.929306 93.607803,97.831421 84.272011,98.036888 
	C82.975761,98.065407 80.874435,99.339355 80.649635,100.366028 
	C80.386230,101.569046 81.615318,103.239975 82.497223,104.497406 
	C82.991844,105.202637 84.093346,105.482231 84.291260,106.250595 
	C79.928261,107.325188 80.365822,110.471191 81.242073,114.272079 
	C81.825806,114.187477 82.409546,114.102875 83.808121,114.009094 
	C84.893623,114.045891 85.979134,114.082687 87.671120,114.661560 
z"/>
<path fill="#D1EAFC" opacity="1.000000" stroke="none" 
	d="
M132.036041,166.183716 
	C137.312531,166.969894 142.568100,167.999924 147.873001,168.454910 
	C151.305405,168.749298 154.849823,167.829575 158.264877,168.194641 
	C159.902420,168.369690 161.356354,170.262405 162.893448,171.377197 
	C161.362076,172.255829 159.841537,173.874588 158.297623,173.897232 
	C144.654160,174.097321 131.006363,173.978424 117.360374,174.051819 
	C115.236427,174.063232 113.024437,174.295425 111.027870,174.954681 
	C109.894188,175.329025 109.115273,176.777817 108.176590,177.742737 
	C109.302933,178.490005 110.377167,179.764847 111.565720,179.882233 
	C114.697746,180.191528 117.904816,179.768005 121.029442,180.112701 
	C122.368240,180.260391 123.576660,181.589935 124.844330,182.382492 
	C123.801056,183.332397 122.802353,185.045776 121.707359,185.109695 
	C113.937965,185.563232 106.149323,185.761719 98.365524,185.804367 
	C97.319565,185.810089 95.620697,184.643661 95.400833,183.735229 
	C95.187485,182.853729 96.327950,181.455795 97.164688,180.554672 
	C98.319542,179.310944 99.747200,178.320526 102.335884,176.150299 
	C98.441284,175.202728 96.019371,174.201172 93.562195,174.105515 
	C89.098412,173.931747 84.603699,174.512787 80.143623,174.307327 
	C78.775185,174.244293 77.477615,172.643021 76.147606,171.746124 
	C77.146881,170.810593 77.997421,169.508286 79.181381,169.028183 
	C80.827621,168.360641 82.801224,168.522949 84.483322,167.912735 
	C85.463524,167.557159 86.148216,166.387024 86.965866,165.583374 
	C86.030464,164.722443 85.125412,163.158386 84.154648,163.116486 
	C78.506638,162.872696 72.843170,162.990128 67.184952,162.976425 
	C66.021088,162.973602 64.570358,163.355560 63.762104,162.807571 
	C62.607197,162.024551 61.570343,160.641006 61.220947,159.318924 
	C61.092148,158.831573 63.020817,157.173889 64.075157,157.110123 
	C68.386421,156.849426 72.727989,156.863586 77.047447,157.041885 
	C80.133904,157.169312 81.797318,156.034546 82.349213,152.395004 
	C87.827553,151.563919 92.912857,151.138123 98.005165,151.023132 
	C98.763733,151.005997 99.555313,152.450974 100.335831,153.657440 
	C100.331650,156.027420 100.363548,157.960709 100.305908,159.891327 
	C100.206757,163.212189 101.259468,165.595490 105.186935,166.310593 
	C114.268562,166.526550 123.152298,166.355133 132.036041,166.183716 
z"/>
<path fill="#D1EAFC" opacity="1.000000" stroke="none" 
	d="
M74.883904,122.993660 
	C74.625839,127.037193 77.018982,128.017838 80.478668,128.003418 
	C86.740227,127.977310 93.002274,128.070358 99.762268,128.651215 
	C100.224281,132.103882 100.188133,135.019012 100.099152,138.232620 
	C99.765442,138.812576 99.484558,139.094055 98.974075,139.025391 
	C97.725288,138.149094 96.709549,137.174683 95.686363,137.166809 
	C86.357224,137.095032 76.948502,136.456177 67.717964,137.438644 
	C57.807365,138.493515 57.430367,138.875015 56.349529,129.483276 
	C51.678909,131.865952 53.167583,136.149780 53.002914,139.894287 
	C52.557083,139.905304 52.111248,139.916336 51.331512,139.533844 
	C50.659065,137.412277 50.320522,135.684219 49.981987,133.956161 
	C50.321384,132.544449 50.660786,131.132721 51.274094,129.133499 
	C52.484097,127.486626 53.232300,126.106583 54.391232,125.427544 
	C57.982826,123.323120 59.214405,117.379684 55.817478,115.203659 
	C51.625046,112.518051 48.067921,109.580978 46.022968,104.999039 
	C44.508045,104.869202 42.993118,104.739365 41.484112,104.047493 
	C43.442810,103.360565 45.432339,102.948624 47.337894,103.192581 
	C49.192738,103.430061 51.018253,104.977371 52.756645,104.823051 
	C56.607662,104.481171 60.395958,103.432823 64.630112,102.588791 
	C64.524223,101.644104 63.744118,99.716446 64.258316,98.239349 
	C65.378578,95.021240 65.060707,92.571754 62.380840,90.362633 
	C61.916866,89.980164 62.110588,88.799843 62.000523,87.988052 
	C62.748863,87.984978 63.497204,87.981911 64.869064,88.263428 
	C69.570778,89.312531 72.924492,90.439980 72.273148,95.907944 
	C71.916145,98.905006 72.568077,102.065422 73.069328,105.101952 
	C73.293930,106.462555 74.265450,107.699860 74.898018,108.993118 
	C74.911087,109.746155 74.924156,110.499184 74.540085,111.685654 
	C70.870567,115.465698 71.151253,119.585007 74.883904,122.993660 
z"/>
<path fill="#CFE9FC" opacity="1.000000" stroke="none" 
	d="
M74.931488,108.526299 
	C74.265450,107.699860 73.293930,106.462555 73.069328,105.101952 
	C72.568077,102.065422 71.916145,98.905006 72.273148,95.907944 
	C72.924492,90.439980 69.570778,89.312531 65.243202,88.269188 
	C67.436028,83.964394 66.695885,82.383087 62.208549,81.984398 
	C60.407589,81.824387 58.453770,81.972816 56.866116,81.290611 
	C55.690083,80.785286 54.993336,79.164551 54.083080,78.040703 
	C55.188148,77.360023 56.234333,76.251839 57.410835,76.089798 
	C59.690899,75.775764 62.109051,76.322731 64.345642,75.881966 
	C65.972878,75.561279 67.400414,74.227280 68.916985,73.345062 
	C67.716484,72.243210 66.446884,71.206055 65.336273,70.020027 
	C64.361214,68.978767 63.564369,67.770622 63.051727,66.215363 
	C63.692097,65.599907 63.885147,65.342087 63.993790,65.021072 
	C65.094879,64.698997 66.195976,64.376923 67.648148,64.465317 
	C68.459564,69.513474 68.505249,69.556175 72.480049,69.121239 
	C71.989273,67.448051 71.496086,65.766617 71.002899,64.085175 
	C72.827469,64.208572 74.652031,64.331963 76.742676,64.734436 
	C76.335838,67.788696 75.136551,70.553551 75.081863,73.340858 
	C74.854851,84.910042 74.973312,96.486008 74.931488,108.526299 
M67.845589,79.179901 
	C68.234108,80.437546 68.622620,81.695198 69.011139,82.952843 
	C69.565781,82.846191 70.120422,82.739532 70.675072,82.632881 
	C71.135368,80.689537 71.595673,78.746185 72.185898,76.254295 
	C70.824234,76.515633 70.126778,76.471321 69.667587,76.780678 
	C69.028206,77.211426 68.567192,77.906914 67.845589,79.179901 
z"/>
<path fill="#F3C22B" opacity="1.000000" stroke="none" 
	d="
M99.203674,139.375549 
	C99.484558,139.094055 99.765442,138.812576 100.422707,138.220825 
	C101.230453,137.886658 101.661819,137.862762 102.131355,138.020874 
	C102.409767,137.965790 102.649994,137.728668 103.214096,137.363602 
	C103.998489,137.219070 104.459030,137.202484 105.103836,137.463226 
	C106.159737,139.489456 107.031364,141.238358 107.520401,142.981979 
	C102.887344,142.837006 102.825310,145.624069 103.149490,149.044037 
	C102.736313,150.672379 102.324684,151.938766 101.649536,153.223938 
	C101.034554,153.234970 100.683083,153.227249 100.331619,153.219543 
	C99.555313,152.450974 98.763733,151.005997 98.005165,151.023132 
	C92.912857,151.138123 87.827553,151.563919 82.332420,152.003448 
	C79.545700,151.677551 77.166542,151.237167 74.281036,150.600449 
	C73.774681,150.404099 73.420227,150.492279 73.420227,150.492279 
	C73.420227,150.492279 73.209778,150.795502 73.358383,150.289001 
	C73.513084,148.240128 73.519180,146.697739 73.810333,144.971924 
	C75.780159,144.333237 77.444984,143.594055 79.153267,143.474136 
	C85.127769,143.054764 91.117279,142.849136 97.352005,142.372131 
	C97.729584,141.788864 97.856232,141.395782 98.188057,140.843475 
	C98.663376,140.248016 98.933525,139.811783 99.203674,139.375549 
M89.110863,149.270920 
	C89.194786,149.318466 89.278709,149.366013 89.362625,149.413559 
	C89.242897,149.274826 89.123169,149.136078 88.858490,148.258102 
	C85.863426,147.355164 82.868355,146.452240 79.873283,145.549301 
	C79.695770,146.291077 79.518250,147.032852 79.340729,147.774628 
	C82.559601,148.184250 85.778473,148.593872 89.110863,149.270920 
M93.080101,145.544907 
	C92.053772,145.375870 91.027435,145.206818 90.001099,145.037781 
	C89.969078,145.324966 89.937065,145.612167 89.905045,145.899353 
	C90.814339,145.899353 91.723633,145.899353 93.080101,145.544907 
z"/>
<path fill="#CFE9FC" opacity="1.000000" stroke="none" 
	d="
M46.025665,105.432159 
	C48.067921,109.580978 51.625046,112.518051 55.817478,115.203659 
	C59.214405,117.379684 57.982826,123.323120 54.391232,125.427544 
	C53.232300,126.106583 52.484097,127.486626 51.284332,128.766083 
	C47.759373,128.654068 44.442505,128.578430 41.258762,127.888481 
	C39.501194,127.507607 36.700756,126.242134 36.571629,125.121750 
	C36.198082,121.880730 39.038673,121.964516 41.435326,122.003548 
	C44.081520,122.046638 46.740459,122.161545 49.371395,121.956757 
	C50.873337,121.839844 52.330521,121.147949 53.807858,120.714943 
	C53.114231,119.192627 52.420605,117.670303 51.324722,115.780777 
	C50.517395,115.092842 50.112320,114.772110 49.707245,114.451378 
	C49.471527,114.966248 49.235806,115.481110 49.000084,115.995979 
	C42.914211,116.188438 36.828213,116.488167 30.742565,116.481308 
	C29.549807,116.479965 28.358391,115.291931 27.166361,114.651215 
	C27.960768,113.429184 28.600796,111.309814 29.576555,111.141945 
	C33.594894,110.450653 37.716698,110.094025 41.797520,110.117828 
	C45.003616,110.136536 46.478874,109.142845 46.025665,105.432159 
z"/>
<path fill="#CFE9FC" opacity="1.000000" stroke="none" 
	d="
M97.101089,142.562317 
	C91.117279,142.849136 85.127769,143.054764 79.153267,143.474136 
	C77.444984,143.594055 75.780159,144.333237 73.335342,144.929749 
	C70.707199,145.043793 68.839119,145.016541 66.971046,144.989288 
	C67.518944,141.319641 66.330719,139.468475 62.242577,139.916153 
	C59.503960,140.216049 56.704502,139.960358 53.467590,139.923782 
	C53.167583,136.149780 51.678909,131.865952 56.349529,129.483276 
	C57.430367,138.875015 57.807365,138.493515 67.717964,137.438644 
	C76.948502,136.456177 86.357224,137.095032 95.686363,137.166809 
	C96.709549,137.174683 97.725288,138.149094 98.974075,139.025375 
	C98.933525,139.811783 98.663376,140.248016 97.941727,141.035370 
	C97.360512,141.778427 97.230797,142.170380 97.101089,142.562317 
z"/>
<path fill="#CFE9FC" opacity="1.000000" stroke="none" 
	d="
M61.550522,87.983627 
	C62.110588,88.799843 61.916866,89.980164 62.380840,90.362633 
	C65.060707,92.571754 65.378578,95.021240 64.258316,98.239349 
	C63.744118,99.716446 64.524223,101.644104 64.630112,102.588791 
	C60.395958,103.432823 56.607662,104.481171 52.756645,104.823051 
	C51.018253,104.977371 49.192738,103.430061 47.337894,103.192581 
	C45.432339,102.948624 43.442810,103.360565 41.209896,103.788048 
	C40.333344,103.115730 39.036167,101.541939 39.265923,101.273109 
	C40.108574,100.287125 41.428448,99.183372 42.623299,99.117699 
	C47.092579,98.872017 51.583469,99.019539 56.580559,99.338684 
	C59.485729,101.508286 59.650635,99.591354 59.980148,97.953018 
	C60.431320,94.040443 58.550587,92.744133 54.819653,92.957901 
	C52.089615,93.114326 49.329578,92.747223 46.288185,91.942154 
	C45.986942,90.495079 45.980434,89.719330 45.973927,88.943573 
	C47.125793,88.543449 48.277664,88.143326 49.764915,88.198364 
	C51.066998,88.429619 52.033699,88.205711 53.000397,87.981804 
	C55.700439,87.980942 58.400478,87.980080 61.550522,87.983627 
z"/>
<path fill="#163B63" opacity="1.000000" stroke="none" 
	d="
M147.547211,121.139717 
	C147.553940,134.724899 147.560669,148.310089 147.617676,162.348114 
	C147.261749,162.795776 146.855591,162.790573 146.210403,162.906921 
	C145.971390,163.028473 145.983963,162.952087 146.025940,162.487885 
	C145.944214,147.992676 145.820526,133.961639 145.718079,119.626778 
	C145.714630,118.917854 145.689972,118.512764 145.766113,117.658051 
	C145.846237,114.459106 145.825546,111.709793 145.856430,108.497070 
	C145.946945,98.704849 145.985886,89.376030 146.428070,80.215851 
	C147.079254,88.982658 147.327194,97.580841 147.575134,106.179024 
	C147.606064,107.523407 147.636993,108.867790 147.655731,110.986443 
	C147.611420,114.887047 147.579315,118.013382 147.547211,121.139717 
z"/>
<path fill="#D1EAFC" opacity="1.000000" stroke="none" 
	d="
M66.521210,144.991882 
	C68.839119,145.016541 70.707199,145.043793 73.050270,145.113205 
	C73.519180,146.697739 73.513084,148.240128 73.487244,150.156891 
	C68.825455,150.681671 64.176437,151.021744 59.546185,150.851486 
	C58.361679,150.807938 57.236511,149.150436 56.084084,148.234421 
	C57.249626,147.162491 58.262798,145.510223 59.616467,145.154800 
	C61.642467,144.622849 63.907829,145.002533 66.521210,144.991882 
z"/>
<path fill="#CFE9FC" opacity="1.000000" stroke="none" 
	d="
M49.555496,133.965515 
	C50.320522,135.684219 50.659065,137.412277 50.997334,139.517303 
	C46.361961,139.917419 41.725452,139.879288 37.092266,139.985809 
	C34.134254,140.053802 32.763527,138.781815 33.237137,135.294464 
	C33.716675,134.577255 33.896576,134.324066 33.996059,134.013718 
	C34.442612,134.008835 34.889160,134.003952 35.917133,134.274811 
	C38.502800,135.403137 40.507046,136.255722 42.839214,137.247803 
	C43.158573,136.356827 43.579231,135.183228 43.999889,134.009644 
	C45.709599,133.998047 47.419304,133.986465 49.555496,133.965515 
z"/>
<path fill="#D1EAFC" opacity="1.000000" stroke="none" 
	d="
M30.837671,127.424973 
	C28.345806,127.757042 26.197353,127.875809 24.048044,127.976273 
	C20.652502,128.135010 20.067554,124.868210 21.336355,123.840164 
	C23.149221,122.371300 26.312904,122.118645 28.869802,122.207443 
	C30.166517,122.252472 31.435221,124.147301 32.582653,125.335220 
	C32.668282,125.423874 31.673321,126.556282 30.837671,127.424973 
z"/>
<path fill="#596E7B" opacity="1.000000" stroke="none" 
	d="
M132.503510,166.112518 
	C123.152298,166.355133 114.268562,166.526550 105.488251,166.023865 
	C116.100578,165.156219 126.609474,164.962646 137.515076,164.792908 
	C140.293396,164.665817 142.675018,164.514862 145.056641,164.363907 
	C142.960617,164.897812 140.889801,165.606506 138.761047,165.913467 
	C136.864334,166.187012 134.903519,166.016098 132.503510,166.112518 
z"/>
<path fill="#D7ECFC" opacity="1.000000" stroke="none" 
	d="
M42.371017,145.207275 
	C43.279373,145.063751 43.840561,144.876831 44.261421,145.043732 
	C46.068447,145.760391 47.907963,146.463303 49.539333,147.484756 
	C49.798317,147.646912 49.191730,150.225571 48.747887,150.301666 
	C46.529037,150.681961 44.231037,150.600479 41.960869,150.681396 
	C41.960339,148.896484 41.959808,147.111588 42.371017,145.207275 
z"/>
<path fill="#D7ECFC" opacity="1.000000" stroke="none" 
	d="
M200.567810,110.792656 
	C201.539383,110.563644 202.223755,110.344772 202.803741,110.504639 
	C205.038666,111.120651 208.030441,111.820549 206.563141,114.816360 
	C205.941696,116.085159 202.808426,116.123726 200.816803,116.721436 
	C200.622086,114.806541 200.427368,112.891655 200.567810,110.792656 
z"/>
<path fill="#D7ECFC" opacity="1.000000" stroke="none" 
	d="
M54.478497,162.644287 
	C52.449356,161.671097 50.764717,160.530228 49.080078,159.389359 
	C50.312366,158.339615 51.408699,156.783981 52.821087,156.404404 
	C53.899757,156.114517 56.498192,157.369461 56.474739,157.840317 
	C56.396603,159.409302 55.441807,160.934601 54.478497,162.644287 
z"/>
<path fill="#D7ECFC" opacity="1.000000" stroke="none" 
	d="
M148.585754,54.422539 
	C147.667542,56.126461 146.759857,58.337238 145.437408,58.622032 
	C144.268036,58.873871 142.442596,57.153774 141.339020,55.918262 
	C141.045197,55.589314 142.334625,52.919292 142.904282,52.916740 
	C144.739700,52.908512 146.578445,53.643459 148.585754,54.422539 
z"/>
<path fill="#D7ECFC" opacity="1.000000" stroke="none" 
	d="
M34.430038,104.616943 
	C32.482212,104.285751 30.774134,103.963882 29.375425,103.125740 
	C29.015203,102.909889 29.261677,100.488167 29.873959,100.102203 
	C30.995913,99.394958 32.825920,98.863068 33.953835,99.302460 
	C36.636570,100.347557 36.554684,102.380501 34.430038,104.616943 
z"/>
<path fill="#D1EAFC" opacity="1.000000" stroke="none" 
	d="
M50.162540,67.727394 
	C51.326466,63.131039 54.521084,65.406837 56.946228,65.412888 
	C57.110554,65.413284 57.824207,68.216263 57.336842,68.647690 
	C54.967091,70.745483 52.412571,70.879196 50.162540,67.727394 
z"/>
<path fill="#D1EAFC" opacity="1.000000" stroke="none" 
	d="
M70.627548,64.061127 
	C71.496086,65.766617 71.989273,67.448051 72.480049,69.121239 
	C68.505249,69.556175 68.459564,69.513474 67.998306,64.481186 
	C68.748993,64.070068 69.500595,64.053574 70.627548,64.061127 
z"/>
<path fill="#0758F6" opacity="1.000000" stroke="none" 
	d="
M145.170639,164.526550 
	C142.675018,164.514862 140.293396,164.665817 137.508423,164.574371 
	C137.105087,164.331985 137.131699,163.892014 137.405914,163.631500 
	C140.056854,163.270599 142.433548,163.170212 145.106598,163.069366 
	C145.596588,163.029984 145.790268,162.991043 145.983963,162.952087 
	C145.983963,162.952087 145.971390,163.028473 145.932434,163.036499 
	C145.690536,163.592743 145.487595,164.140961 145.170639,164.526550 
z"/>
<path fill="#D1EAFC" opacity="1.000000" stroke="none" 
	d="
M43.555908,134.001114 
	C43.579231,135.183228 43.158573,136.356827 42.839214,137.247803 
	C40.507046,136.255722 38.502800,135.403137 36.252029,134.280670 
	C38.374313,134.004730 40.743122,133.998657 43.555908,134.001114 
z"/>
<path fill="#D1EAFC" opacity="1.000000" stroke="none" 
	d="
M59.662556,97.992081 
	C59.650635,99.591354 59.485729,101.508286 57.048328,99.349442 
	C57.782852,98.704460 58.563908,98.367805 59.662556,97.992081 
z"/>
<path fill="#D1EAFC" opacity="1.000000" stroke="none" 
	d="
M52.625298,87.978424 
	C52.033699,88.205711 51.066998,88.429619 50.049919,88.318069 
	C50.749760,87.980095 51.499977,87.977577 52.625298,87.978424 
z"/>
<path fill="#D1EAFC" opacity="1.000000" stroke="none" 
	d="
M45.643356,89.009163 
	C45.980434,89.719330 45.986942,90.495079 45.985435,91.659073 
	C45.755875,91.056465 45.534328,90.065605 45.643356,89.009163 
z"/>
<path fill="#D1EAFC" opacity="1.000000" stroke="none" 
	d="
M49.333359,116.004791 
	C49.235806,115.481110 49.471527,114.966248 49.707245,114.451378 
	C50.112320,114.772110 50.517395,115.092842 50.961342,115.711929 
	C50.555687,116.011391 50.111164,116.012497 49.333359,116.004791 
z"/>
<path fill="#D1EAFC" opacity="1.000000" stroke="none" 
	d="
M73.351471,150.725739 
	C73.420227,150.492279 73.774681,150.404099 73.940529,150.481689 
	C73.831818,150.692596 73.557266,150.825897 73.351471,150.725739 
z"/>
<path fill="#D1EAFC" opacity="1.000000" stroke="none" 
	d="
M63.767319,65.120010 
	C63.885147,65.342087 63.692097,65.599907 63.193890,65.902245 
	C63.065899,65.677017 63.255135,65.413353 63.767319,65.120010 
z"/>
<path fill="#D1EAFC" opacity="1.000000" stroke="none" 
	d="
M33.778564,134.112152 
	C33.896576,134.324066 33.716675,134.577255 33.247097,134.880981 
	C33.116066,134.664658 33.290478,134.405289 33.778564,134.112152 
z"/>
<path fill="#D2ECF4" opacity="1.000000" stroke="none" 
	d="
M147.936157,105.919434 
	C147.327194,97.580841 147.079254,88.982658 146.075409,80.102448 
	C144.221069,80.280052 143.122620,80.739685 141.776947,81.142189 
	C141.361267,81.069710 141.192810,81.054344 140.751038,80.873550 
	C139.661957,80.020226 138.846146,79.332321 138.078827,78.325798 
	C137.993561,76.385353 141.298248,74.516273 137.777145,73.138046 
	C139.617783,71.245079 141.458405,69.352112 143.299026,67.459145 
	C143.929657,67.903816 144.560272,68.348488 145.190903,68.793159 
	C144.397079,70.938950 143.603256,73.084740 142.684204,75.568993 
	C148.236694,76.714592 149.504501,80.554840 149.072021,85.837906 
	C148.533020,92.422234 148.531052,99.050529 147.936157,105.919434 
z"/>
<path fill="#F0DE88" opacity="1.000000" stroke="none" 
	d="
M137.352905,73.164322 
	C141.298248,74.516273 137.993561,76.385353 138.007004,78.588982 
	C137.641098,79.430161 137.395477,79.689529 136.783783,79.924622 
	C134.234955,81.908859 132.052170,83.917381 129.617676,85.715675 
	C127.136826,82.846603 125.866737,80.254959 129.799820,77.908211 
	C129.841782,77.883179 129.165222,76.653908 128.827011,75.686745 
	C128.536163,74.904007 128.242401,74.421333 127.948639,73.938652 
	C130.941986,73.689301 133.935318,73.439949 137.352905,73.164322 
z"/>
<path fill="#FBC316" opacity="1.000000" stroke="none" 
	d="
M127.528503,73.959503 
	C128.242401,74.421333 128.536163,74.904007 128.488525,75.727692 
	C125.709892,77.456871 123.272682,78.845047 120.550934,80.201050 
	C119.886841,80.135033 119.507263,80.101196 118.747772,80.044815 
	C117.606979,80.010376 116.846123,79.998466 116.085258,79.986557 
	C115.811760,75.684036 118.485252,74.238365 122.526894,73.697800 
	C124.313034,73.762253 125.710701,73.871307 127.528503,73.959503 
z"/>
<path fill="#D2ECF4" opacity="1.000000" stroke="none" 
	d="
M147.935410,121.066864 
	C147.579315,118.013382 147.611420,114.887047 147.760956,111.376892 
	C149.471024,112.547707 149.753311,118.888702 147.935410,121.066864 
z"/>
<path fill="#0758F6" opacity="1.000000" stroke="none" 
	d="
M111.024216,132.918915 
	C111.454712,132.924042 111.885201,132.929169 112.662041,133.174042 
	C113.670601,133.604965 114.332825,133.796143 115.332527,134.168350 
	C119.094810,134.909607 122.519600,135.469818 126.101578,136.361435 
	C127.935768,140.439346 126.244156,142.102753 122.691475,143.143723 
	C121.394562,143.523712 120.459892,145.140015 119.359955,146.192307 
	C120.759521,147.122711 122.059174,148.316574 123.591232,148.897522 
	C124.752541,149.337891 126.309921,148.691010 127.510101,149.082565 
	C128.959686,149.555496 130.582321,150.364655 131.385757,151.537964 
	C131.721313,152.028015 130.409119,154.171844 129.385391,154.980392 
	C123.507172,159.623062 123.460251,159.563660 128.595245,163.630646 
	C121.306236,163.774887 114.476234,163.958435 107.655304,163.784988 
	C105.882271,163.739899 102.779877,162.784729 102.645111,161.891815 
	C102.298836,159.597595 103.274635,157.103821 104.162277,154.739838 
	C112.277542,156.120102 116.927399,148.105682 114.291832,143.489426 
	C112.740845,140.772827 109.492165,139.025482 107.213966,136.607117 
	C108.622002,135.220978 109.823112,134.069946 111.024216,132.918915 
z"/>
<path fill="#ECF0F3" opacity="1.000000" stroke="none" 
	d="
M84.921417,105.953598 
	C84.093346,105.482231 82.991844,105.202637 82.497223,104.497406 
	C81.615318,103.239975 80.386230,101.569046 80.649635,100.366028 
	C80.874435,99.339355 82.975761,98.065407 84.272011,98.036888 
	C93.607803,97.831421 102.950012,97.929306 112.290085,97.898689 
	C114.818741,97.890404 117.576347,98.286972 116.789078,101.425659 
	C116.415390,102.915489 113.681900,104.671623 111.911163,104.796227 
	C105.968124,105.214394 99.977119,104.933182 94.004761,104.967781 
	C92.860916,104.974403 91.718353,105.199471 89.988007,105.661362 
	C87.907684,105.983849 86.414551,105.968719 84.921417,105.953598 
z"/>
<path fill="#EEF3F4" opacity="1.000000" stroke="none" 
	d="
M84.606339,106.102097 
	C86.414551,105.968719 87.907684,105.983849 89.729324,105.990219 
	C97.069649,106.313171 104.093536,106.497559 111.085701,107.069603 
	C113.089546,107.233543 115.001663,108.518669 116.999969,110.076187 
	C115.323593,111.914932 113.638824,113.801590 111.876472,113.877075 
	C103.617554,114.230850 95.337280,114.086136 87.064636,114.119476 
	C85.979134,114.082687 84.893623,114.045891 83.079384,113.964149 
	C81.921791,113.856033 81.492935,113.792854 81.064079,113.729683 
	C80.365822,110.471191 79.928261,107.325188 84.606339,106.102097 
z"/>
<path fill="#277EFC" opacity="1.000000" stroke="none" 
	d="
M123.086708,122.110146 
	C123.025108,120.684769 122.963501,119.259399 123.317291,117.410614 
	C125.487984,116.992958 127.243279,116.998726 129.167557,117.317665 
	C131.037903,117.757217 132.750839,118.067192 134.437546,117.960907 
	C136.310806,117.842873 138.160141,117.345154 140.014694,117.411713 
	C139.913910,121.213943 141.037598,123.451752 144.988632,123.437798 
	C144.974716,125.902893 144.944443,127.932884 144.492676,129.969513 
	C141.362534,130.654510 138.653900,131.332855 135.620819,132.008179 
	C134.863708,132.004364 134.431076,132.003571 133.740936,131.798416 
	C132.651978,130.728149 131.820526,129.862244 130.994171,128.578308 
	C131.760864,122.237724 127.632851,122.960220 123.901512,122.809540 
	C123.629059,122.349854 123.390251,122.183517 123.086708,122.110146 
z"/>
<path fill="#CEE9FB" opacity="1.000000" stroke="none" 
	d="
M90.793732,88.154572 
	C86.353203,85.183640 88.053207,81.033836 89.443306,77.627289 
	C90.955940,73.920471 94.564293,71.910217 98.644638,72.099586 
	C102.642754,72.285141 106.455406,73.360504 108.338295,77.640495 
	C110.145233,81.747841 110.086655,85.538246 106.445511,88.723358 
	C105.014519,87.635307 104.029121,86.792076 103.027496,85.618889 
	C102.681160,84.527168 102.351059,83.765396 102.021744,82.610329 
	C102.075226,79.198044 100.859474,76.606361 97.678200,77.352150 
	C96.430557,77.644638 95.905006,81.017334 95.034286,83.321602 
	C95.012596,84.102074 95.007217,84.548187 94.664368,85.024948 
	C93.149178,86.088600 91.971451,87.121582 90.793732,88.154572 
z"/>
<path fill="#F5FAFC" opacity="1.000000" stroke="none" 
	d="
M90.871185,88.499130 
	C91.971451,87.121582 93.149178,86.088600 94.811119,85.316078 
	C96.085236,85.780418 96.875130,85.984283 97.665024,86.188156 
	C96.793549,85.121185 95.922081,84.054207 95.050606,82.987236 
	C95.905006,81.017334 96.430557,77.644638 97.678200,77.352150 
	C100.859474,76.606361 102.075226,79.198044 101.725456,82.755440 
	C101.099442,83.947716 100.770500,84.601585 100.441566,85.255447 
	C101.308952,85.486580 102.176338,85.717712 103.043724,85.948845 
	C104.029121,86.792076 105.014519,87.635307 106.101593,88.827576 
	C101.891541,95.231712 95.530296,95.092880 90.871185,88.499130 
z"/>
<path fill="#ECBE22" opacity="1.000000" stroke="none" 
	d="
M137.149841,79.948898 
	C137.395477,79.689529 137.641098,79.430161 137.958527,78.907608 
	C138.846146,79.332321 139.661957,80.020226 140.746552,81.252441 
	C140.408188,83.886185 139.801041,85.975609 139.156387,88.286621 
	C139.118896,88.508209 139.272049,88.930801 139.182434,89.254448 
	C139.053894,90.022926 139.014999,90.467766 138.700897,91.104591 
	C137.230087,93.153389 136.034500,95.010185 134.522095,96.990631 
	C130.785324,99.954674 127.244865,101.790298 123.083450,98.448067 
	C123.083450,98.448067 123.149895,98.113396 123.355392,97.808823 
	C126.518333,98.404778 128.143356,97.867393 127.362350,94.260544 
	C133.919220,91.456337 135.327652,85.565895 137.149841,79.948898 
z"/>
<path fill="#2597F4" opacity="1.000000" stroke="none" 
	d="
M123.023544,98.943977 
	C127.244865,101.790298 130.785324,99.954674 134.804184,97.049477 
	C135.594711,97.000839 135.786346,97.017006 135.844696,97.313477 
	C135.250809,98.465485 134.790237,99.337204 134.212357,100.430946 
	C137.149368,99.487381 139.586441,98.704437 142.382568,97.937553 
	C143.219803,98.004227 143.697983,98.054825 144.169464,98.400414 
	C144.166580,99.088806 144.170410,99.482216 143.885635,100.088799 
	C143.398346,101.201813 143.199646,102.101646 142.601898,103.017853 
	C139.829071,103.368469 137.455307,103.702705 134.673889,104.023987 
	C131.627701,104.285393 128.989151,104.559746 126.118950,104.858192 
	C125.753075,106.504608 125.371361,108.222336 124.663391,109.954208 
	C123.902039,109.979630 123.466949,109.990898 123.031860,110.002167 
	C123.009125,106.481407 122.986374,102.960648 123.023544,98.943977 
z"/>
<path fill="#F1C72E" opacity="1.000000" stroke="none" 
	d="
M126.987549,94.328995 
	C128.143356,97.867393 126.518333,98.404778 123.331665,97.639877 
	C116.619827,93.877205 115.500076,87.721199 116.038834,80.436539 
	C116.846123,79.998466 117.606979,80.010376 118.680161,80.411667 
	C121.657494,85.310371 124.322517,89.819679 126.987549,94.328995 
z"/>
<path fill="#0961E9" opacity="1.000000" stroke="none" 
	d="
M110.841980,132.631348 
	C109.823112,134.069946 108.622002,135.220978 106.865463,136.666534 
	C105.846550,137.036011 105.383057,137.110962 104.919563,137.185913 
	C104.459030,137.202484 103.998489,137.219070 103.047409,137.294403 
	C102.264168,137.382874 102.109604,137.544769 102.093178,137.838867 
	C101.661819,137.862762 101.230453,137.886658 100.475540,137.922363 
	C100.188133,135.019012 100.224281,132.103882 100.228325,128.776047 
	C104.795059,126.769646 108.021835,128.782715 110.841980,132.631348 
z"/>
<path fill="#0877F8" opacity="1.000000" stroke="none" 
	d="
M122.970200,110.436035 
	C123.466949,109.990898 123.902039,109.979630 125.062256,109.977249 
	C127.847214,110.344231 129.907043,110.702324 131.966644,111.425522 
	C130.977142,113.528587 129.987854,115.266533 128.998581,117.004486 
	C127.243279,116.998726 125.487984,116.992958 123.379868,116.985901 
	C122.987556,114.946365 122.948051,112.908127 122.970200,110.436035 
z"/>
<path fill="#0667FB" opacity="1.000000" stroke="none" 
	d="
M123.999893,123.009949 
	C127.632851,122.960220 131.760864,122.237724 130.610977,128.623535 
	C127.478523,129.060867 124.734383,129.034927 122.135117,128.673645 
	C122.466125,127.394447 122.652252,126.450607 122.838394,125.506775 
	C122.838394,125.506775 122.720100,125.260155 123.060860,124.988564 
	C123.601044,124.147964 123.800468,123.578957 123.999893,123.009949 
z"/>
<path fill="#A6C2CD" opacity="1.000000" stroke="none" 
	d="
M87.367874,114.390518 
	C95.337280,114.086136 103.617554,114.230850 111.876472,113.877075 
	C113.638824,113.801590 115.323593,111.914932 117.096603,110.467537 
	C119.454765,113.845879 117.266609,115.591805 113.975159,115.575340 
	C105.205841,115.531471 96.438965,114.999489 87.367874,114.390518 
z"/>
<path fill="#0961E9" opacity="1.000000" stroke="none" 
	d="
M122.529663,125.756645 
	C122.652252,126.450607 122.466125,127.394447 121.762863,128.718689 
	C118.588387,129.994797 115.123192,129.857483 114.995041,133.987320 
	C114.332825,133.796143 113.670601,133.604965 112.983215,133.141266 
	C113.043831,131.440247 113.129616,130.011719 113.189423,129.015762 
	C116.410370,127.942558 119.315651,126.974541 122.529663,125.756645 
z"/>
<path fill="#CFE9FC" opacity="1.000000" stroke="none" 
	d="
M74.916771,122.537292 
	C71.151253,119.585007 70.870567,115.465698 74.512619,112.061493 
	C74.904747,115.362907 74.927193,118.721924 74.916771,122.537292 
z"/>
<path fill="#0961E9" opacity="1.000000" stroke="none" 
	d="
M123.901512,122.809540 
	C123.800468,123.578957 123.601044,124.147964 123.130630,124.870941 
	C122.887360,124.291847 122.915070,123.558784 123.014740,122.467934 
	C123.390251,122.183517 123.629059,122.349854 123.901512,122.809540 
z"/>
<path fill="#A6C2CD" opacity="1.000000" stroke="none" 
	d="
M81.153076,114.000885 
	C81.492935,113.792854 81.921791,113.856033 82.671967,113.968735 
	C82.409546,114.102875 81.825806,114.187477 81.153076,114.000885 
z"/>
<path fill="#163B63" opacity="1.000000" stroke="none" 
	d="
M103.722023,154.689804 
	C103.274635,157.103821 102.298836,159.597595 102.645111,161.891815 
	C102.779877,162.784729 105.882271,163.739899 107.655304,163.784988 
	C114.476234,163.958435 121.306236,163.774887 129.025085,163.747559 
	C132.322113,163.811096 134.726898,163.851547 137.131699,163.892014 
	C137.131699,163.892014 137.105087,164.331985 137.111725,164.550537 
	C126.609474,164.962646 116.100578,165.156219 105.290359,165.636505 
	C101.259468,165.595490 100.206757,163.212189 100.305908,159.891327 
	C100.363548,157.960709 100.331650,156.027420 100.335831,153.657440 
	C100.683083,153.227249 101.034554,153.234970 101.769180,153.436005 
	C102.675568,153.982819 103.198792,154.336304 103.722023,154.689804 
z"/>
<path fill="#D1EAFC" opacity="1.000000" stroke="none" 
	d="
M67.937714,78.834503 
	C68.567192,77.906914 69.028206,77.211426 69.667587,76.780678 
	C70.126778,76.471321 70.824234,76.515633 72.185898,76.254295 
	C71.595673,78.746185 71.135368,80.689537 70.675072,82.632881 
	C70.120422,82.739532 69.565781,82.846191 69.011139,82.952843 
	C68.622620,81.695198 68.234108,80.437546 67.937714,78.834503 
z"/>
<path fill="#ECCD66" opacity="1.000000" stroke="none" 
	d="
M104.162277,154.739838 
	C103.198792,154.336304 102.675568,153.982819 102.032692,153.417236 
	C102.324684,151.938766 102.736313,150.672379 103.529938,149.057404 
	C109.041580,148.387817 109.645302,147.522324 107.902992,142.987259 
	C107.031364,141.238358 106.159737,139.489456 105.103836,137.463242 
	C105.383057,137.110962 105.846550,137.036011 106.658539,136.901642 
	C109.492165,139.025482 112.740845,140.772827 114.291832,143.489426 
	C116.927399,148.105682 112.277542,156.120102 104.162277,154.739838 
M106.734909,152.110947 
	C106.471024,151.833771 106.213142,151.549988 105.930588,151.293365 
	C105.910400,151.275024 105.709450,151.455704 105.592545,151.543854 
	C105.871124,151.837708 106.149696,152.131577 106.734909,152.110947 
z"/>
<path fill="#275CD6" opacity="1.000000" stroke="none" 
	d="
M107.520401,142.981979 
	C109.645302,147.522324 109.041580,148.387817 103.531479,148.695465 
	C102.825310,145.624069 102.887344,142.837006 107.520401,142.981979 
z"/>
<path fill="#FCCC3B" opacity="1.000000" stroke="none" 
	d="
M88.997345,149.003479 
	C85.778473,148.593872 82.559601,148.184250 79.340729,147.774628 
	C79.518250,147.032852 79.695770,146.291077 79.873283,145.549301 
	C82.868355,146.452240 85.863426,147.355164 88.929245,148.629059 
	C89.000000,149.000000 88.997345,149.003479 88.997345,149.003479 
z"/>
<path fill="#FCCC3B" opacity="1.000000" stroke="none" 
	d="
M92.856514,145.722137 
	C91.723633,145.899353 90.814339,145.899353 89.905045,145.899353 
	C89.937065,145.612167 89.969078,145.324966 90.001099,145.037781 
	C91.027435,145.206818 92.053772,145.375870 92.856514,145.722137 
z"/>
<path fill="#ECCD66" opacity="1.000000" stroke="none" 
	d="
M102.131355,138.020874 
	C102.109604,137.544769 102.264168,137.382874 102.723541,137.422363 
	C102.649994,137.728668 102.409767,137.965790 102.131355,138.020874 
z"/>
<path fill="#FCCC3B" opacity="1.000000" stroke="none" 
	d="
M89.001717,148.998672 
	C89.123169,149.136078 89.242897,149.274826 89.362625,149.413559 
	C89.278709,149.366013 89.194786,149.318466 89.054108,149.137207 
	C88.997345,149.003479 89.000000,149.000000 89.001717,148.998672 
z"/>
<path fill="#D1EAFC" opacity="1.000000" stroke="none" 
	d="
M97.352013,142.372131 
	C97.230797,142.170380 97.360512,141.778427 97.736557,141.194580 
	C97.856232,141.395782 97.729584,141.788864 97.352013,142.372131 
z"/>
<path fill="#3971B9" opacity="1.000000" stroke="none" 
	d="
M144.914185,129.962875 
	C144.944443,127.932884 144.974716,125.902893 145.011490,123.112732 
	C145.244278,121.545242 145.470566,120.737930 145.696869,119.930618 
	C145.820526,133.961639 145.944214,147.992676 146.025940,162.487885 
	C145.790268,162.991043 145.596588,163.029984 145.149368,162.808380 
	C144.894943,162.372299 144.894058,162.196732 144.935974,161.591599 
	C144.958145,159.438782 144.937531,157.715515 144.939545,155.554642 
	C144.945999,153.071899 144.929840,151.026764 144.950775,148.516098 
	C144.963303,142.021332 144.938751,135.992096 144.914185,129.962875 
z"/>
<path fill="#4389BE" opacity="1.000000" stroke="none" 
	d="
M144.174255,99.875618 
	C144.170410,99.482216 144.166580,99.088806 144.417999,98.092392 
	C144.766449,95.318893 144.859650,93.148422 144.970215,90.549019 
	C145.021957,86.806946 145.765259,83.258286 142.024170,81.199310 
	C143.122620,80.739685 144.221069,80.280052 145.672180,79.933823 
	C145.985886,89.376030 145.946945,98.704849 145.679306,108.517853 
	C145.450607,109.002052 145.093506,109.026291 145.060883,108.587906 
	C144.999710,106.105438 144.971176,104.061363 144.948029,101.717972 
	C144.693710,100.904320 144.433975,100.389969 144.174255,99.875618 
z"/>
<path fill="#508EFE" opacity="1.000000" stroke="none" 
	d="
M145.718079,119.626778 
	C145.470566,120.737930 145.244278,121.545242 144.995132,122.677628 
	C141.037598,123.451752 139.913910,121.213943 140.424591,117.409515 
	C142.203949,117.002144 143.568237,116.995926 145.017578,117.199753 
	C145.228271,117.692345 145.415817,117.924980 145.665298,118.107681 
	C145.689972,118.512764 145.714630,118.917854 145.718079,119.626778 
z"/>
<path fill="#3971B9" opacity="1.000000" stroke="none" 
	d="
M145.766113,117.658051 
	C145.415817,117.924980 145.228271,117.692345 145.038254,116.763962 
	C144.949936,114.080650 144.926010,112.043159 144.953461,109.761520 
	C145.004837,109.517357 145.093506,109.026291 145.093506,109.026291 
	C145.093506,109.026291 145.450607,109.002052 145.627731,108.981262 
	C145.825546,111.709793 145.846237,114.459106 145.766113,117.658051 
z"/>
<path fill="#2770FA" opacity="1.000000" stroke="none" 
	d="
M144.913696,148.981644 
	C144.929840,151.026764 144.945999,153.071899 144.487793,155.548157 
	C141.198624,155.984802 138.324570,155.656113 135.594589,156.140137 
	C134.276184,156.373886 133.228760,158.135971 132.058640,159.206055 
	C133.190872,160.134262 134.241165,161.707748 135.471420,161.863922 
	C138.568741,162.257141 141.747223,162.011017 144.893173,162.021164 
	C144.894058,162.196732 144.894943,162.372299 144.853027,162.808838 
	C142.433548,163.170212 140.056854,163.270599 137.405914,163.631500 
	C134.726898,163.851547 132.322113,163.811096 129.487473,163.653748 
	C123.460251,159.563660 123.507172,159.623062 129.385391,154.980392 
	C130.409119,154.171844 131.721313,152.028015 131.385757,151.537964 
	C130.582321,150.364655 128.959686,149.555496 127.510101,149.082565 
	C126.309921,148.691010 124.752541,149.337891 123.591232,148.897522 
	C122.059174,148.316574 120.759521,147.122711 119.359955,146.192307 
	C120.459892,145.140015 121.394562,143.523712 122.691475,143.143723 
	C126.244156,142.102753 127.935768,140.439346 126.509773,136.343048 
	C128.940002,134.239899 133.662613,137.099533 133.998428,132.002777 
	C134.431076,132.003571 134.863708,132.004364 135.641159,132.392593 
	C137.301239,133.909470 138.688339,134.967148 139.910233,136.189926 
	C140.989731,137.270172 142.721436,138.602890 142.631775,139.698669 
	C142.537888,140.845932 140.657135,141.893158 139.465866,142.872772 
	C139.157944,143.125977 138.372040,142.777328 138.037186,143.021973 
	C136.666473,144.023483 135.385300,145.147552 134.071167,146.226486 
	C135.541748,147.153122 136.910217,148.532104 138.508530,148.892883 
	C140.546432,149.352905 142.770096,148.989899 144.913696,148.981644 
z"/>
<path fill="#29ADF9" opacity="1.000000" stroke="none" 
	d="
M141.776947,81.142197 
	C145.765259,83.258286 145.021957,86.806946 144.628510,90.521652 
	C142.505005,90.919678 140.740540,90.916138 138.976105,90.912598 
	C139.014999,90.467766 139.053894,90.022926 139.314270,89.172348 
	C139.670746,88.431610 139.556793,88.197754 139.193878,88.065025 
	C139.801041,85.975609 140.408188,83.886185 141.019836,81.417870 
	C141.192810,81.054344 141.361267,81.069710 141.776947,81.142197 
z"/>
<path fill="#6AA647" opacity="1.000000" stroke="none" 
	d="
M127.362350,94.260544 
	C124.322517,89.819679 121.657494,85.310371 119.060081,80.434204 
	C119.507263,80.101196 119.886841,80.135033 120.620316,80.528267 
	C123.054398,83.525330 125.134583,86.162994 127.503822,89.167191 
	C128.568085,87.708939 129.218750,86.817413 129.869400,85.925896 
	C132.052170,83.917381 134.234955,81.908859 136.783783,79.924614 
	C135.327652,85.565895 133.919220,91.456337 127.362350,94.260544 
z"/>
<path fill="#F3D251" opacity="1.000000" stroke="none" 
	d="
M129.617676,85.715675 
	C129.218750,86.817413 128.568085,87.708939 127.503822,89.167191 
	C125.134583,86.162994 123.054398,83.525330 120.904846,80.560440 
	C123.272682,78.845047 125.709892,77.456871 128.485596,76.027740 
	C129.165222,76.653908 129.841782,77.883179 129.799820,77.908211 
	C125.866737,80.254959 127.136826,82.846603 129.617676,85.715675 
z"/>
<path fill="#2377FD" opacity="1.000000" stroke="none" 
	d="
M133.740936,131.798416 
	C133.662613,137.099533 128.940002,134.239899 126.352600,136.011658 
	C122.519600,135.469818 119.094810,134.909607 115.332527,134.168350 
	C115.123192,129.857483 118.588387,129.994797 121.617981,129.054047 
	C124.734383,129.034927 127.478523,129.060867 130.605865,129.041565 
	C131.820526,129.862244 132.651978,130.728149 133.740936,131.798416 
z"/>
<path fill="#508EFE" opacity="1.000000" stroke="none" 
	d="
M144.950775,148.516098 
	C142.770096,148.989899 140.546432,149.352905 138.508530,148.892883 
	C136.910217,148.532104 135.541748,147.153122 134.071167,146.226486 
	C135.385300,145.147552 136.666473,144.023483 138.037186,143.021973 
	C138.372040,142.777328 139.157944,143.125977 139.465866,142.872772 
	C140.657135,141.893158 142.537888,140.845932 142.631775,139.698669 
	C142.721436,138.602890 140.989731,137.270172 139.910233,136.189926 
	C138.688339,134.967148 137.301239,133.909470 135.965622,132.395599 
	C138.653900,131.332855 141.362534,130.654510 144.492676,129.969513 
	C144.938751,135.992096 144.963303,142.021332 144.950775,148.516098 
z"/>
<path fill="#2988FD" opacity="1.000000" stroke="none" 
	d="
M144.902084,110.005676 
	C144.926010,112.043159 144.949936,114.080650 144.953186,116.553925 
	C143.568237,116.995926 142.203949,117.002144 140.429779,117.010551 
	C138.160141,117.345154 136.310806,117.842873 134.437546,117.960907 
	C132.750839,118.067192 131.037903,117.757217 129.167557,117.317657 
	C129.987854,115.266533 130.977142,113.528587 132.113068,111.128006 
	C133.183319,109.972008 134.106918,109.478638 135.400513,109.150833 
	C138.814377,109.546150 141.858231,109.775917 144.902084,110.005676 
z"/>
<path fill="#ECF0F3" opacity="1.000000" stroke="none" 
	d="
M95.034286,83.321602 
	C95.922081,84.054207 96.793549,85.121185 97.665024,86.188156 
	C96.875130,85.984283 96.085236,85.780418 95.148590,85.285416 
	C95.007217,84.548187 95.012596,84.102074 95.034286,83.321602 
z"/>
<path fill="#ECF0F3" opacity="1.000000" stroke="none" 
	d="
M103.027496,85.618889 
	C102.176338,85.717712 101.308952,85.486580 100.441566,85.255447 
	C100.770500,84.601585 101.099442,83.947716 101.724670,83.148743 
	C102.351059,83.765396 102.681160,84.527168 103.027496,85.618889 
z"/>
<path fill="#55B1F2" opacity="1.000000" stroke="none" 
	d="
M138.700897,91.104599 
	C140.740540,90.916138 142.505005,90.919678 144.611145,90.950577 
	C144.859650,93.148422 144.766449,95.318893 144.424713,97.797394 
	C143.697983,98.054825 143.219803,98.004227 142.103134,97.674927 
	C139.635773,97.275215 137.806885,97.154198 135.977997,97.033188 
	C135.786346,97.017006 135.594711,97.000839 135.121002,96.925835 
	C136.034500,95.010185 137.230087,93.153389 138.700897,91.104599 
z"/>
<path fill="#55B1F2" opacity="1.000000" stroke="none" 
	d="
M139.156387,88.286621 
	C139.556793,88.197754 139.670746,88.431610 139.403885,88.848694 
	C139.272049,88.930801 139.118896,88.508209 139.156387,88.286621 
z"/>
<path fill="#4FA6FE" opacity="1.000000" stroke="none" 
	d="
M144.953461,109.761520 
	C141.858231,109.775917 138.814377,109.546150 135.392242,108.738220 
	C135.036484,106.785683 135.059021,105.411316 135.081543,104.036942 
	C137.455307,103.702705 139.829071,103.368469 142.855652,102.915985 
	C143.986542,102.537598 144.464600,102.277443 144.942642,102.017288 
	C144.971176,104.061363 144.999710,106.105438 145.060883,108.587906 
	C145.093506,109.026291 145.004837,109.517357 144.953461,109.761520 
z"/>
<path fill="#2892FD" opacity="1.000000" stroke="none" 
	d="
M134.673904,104.023994 
	C135.059021,105.411316 135.036484,106.785683 135.022232,108.572662 
	C134.106918,109.478638 133.183319,109.972008 132.113312,110.762894 
	C129.907043,110.702324 127.847214,110.344231 125.388512,109.963104 
	C125.371361,108.222336 125.753075,106.504608 126.118950,104.858192 
	C128.989151,104.559746 131.627701,104.285393 134.673904,104.023994 
z"/>
<path fill="#309BF6" opacity="1.000000" stroke="none" 
	d="
M135.844696,97.313477 
	C137.806885,97.154198 139.635773,97.275215 141.744080,97.658859 
	C139.586441,98.704437 137.149368,99.487381 134.212357,100.430946 
	C134.790237,99.337204 135.250809,98.465485 135.844696,97.313477 
z"/>
<path fill="#309BF6" opacity="1.000000" stroke="none" 
	d="
M144.948029,101.717979 
	C144.464600,102.277443 143.986542,102.537598 143.254730,102.899612 
	C143.199646,102.101646 143.398346,101.201813 143.885651,100.088799 
	C144.433975,100.389969 144.693710,100.904320 144.948029,101.717979 
z"/>
<path fill="#F3C22B" opacity="1.000000" stroke="none" 
	d="
M106.581589,152.268188 
	C106.149696,152.131577 105.871124,151.837708 105.592545,151.543854 
	C105.709450,151.455704 105.910400,151.275024 105.930588,151.293365 
	C106.213142,151.549988 106.471024,151.833771 106.581589,152.268188 
z"/>
<path fill="#508EFE" opacity="1.000000" stroke="none" 
	d="
M144.935974,161.591599 
	C141.747223,162.011017 138.568741,162.257141 135.471420,161.863922 
	C134.241165,161.707748 133.190872,160.134262 132.058640,159.206055 
	C133.228760,158.135971 134.276184,156.373886 135.594589,156.140137 
	C138.324570,155.656113 141.198624,155.984802 144.465179,155.985779 
	C144.937531,157.715515 144.958145,159.438782 144.935974,161.591599 
z"/>
</svg>