<svg version="1.1" id="Layer_1" xmlns="http://www.w3.org/2000/svg" xmlns:xlink="http://www.w3.org/1999/xlink" x="0px" y="0px"
	 width="100%" viewBox="0 0 225 225" enable-background="new 0 0 225 225" xml:space="preserve">
<path fill="#FFFFFF" opacity="1.000000" stroke="none" 
	d="
M129.000000,1.000000 
	C161.299545,1.000000 193.599091,1.000000 225.949310,1.000000 
	C225.949310,75.887810 225.949310,150.775665 225.949310,226.000000 
	C193.979889,226.000000 161.958603,226.000000 129.648590,225.682648 
	C141.447388,222.119858 148.540878,213.238297 148.751953,200.752884 
	C148.901138,191.928070 148.972290,183.093353 148.720291,174.273285 
	C148.546097,168.177139 148.650620,162.458069 153.638992,157.885971 
	C155.151947,156.499268 156.140244,154.310394 156.823593,152.303299 
	C157.796005,149.447266 159.489792,148.686600 162.384628,148.722214 
	C174.541168,148.871735 186.700684,148.810623 198.858963,148.776810 
	C208.022232,148.751328 211.989777,144.814392 211.997894,135.727692 
	C212.019440,111.577492 212.019547,87.427246 211.997849,63.277050 
	C211.989594,54.100643 208.067383,50.133224 198.977158,50.112785 
	C184.154007,50.079449 169.330704,50.103718 154.507477,50.103680 
	C152.740494,50.103676 150.973495,50.103676 148.782379,50.103676 
	C148.782379,41.783047 148.855392,34.150875 148.762405,26.520721 
	C148.664078,18.451252 145.942505,11.396593 139.372070,6.480728 
	C136.279175,4.166690 132.479431,2.797396 129.000000,1.000000 
z"/>
<path fill="#8E6EA0" opacity="1.000000" stroke="none" 
	d="
M128.531342,1.000000 
	C132.479431,2.797396 136.279175,4.166690 139.372070,6.480728 
	C145.942505,11.396593 148.664078,18.451252 148.762405,26.520721 
	C148.855392,34.150875 148.782379,41.783047 148.782379,50.103676 
	C150.973495,50.103676 152.740494,50.103676 154.507477,50.103680 
	C169.330704,50.103718 184.154007,50.079449 198.977158,50.112785 
	C208.067383,50.133224 211.989594,54.100643 211.997849,63.277050 
	C212.019547,87.427246 212.019440,111.577492 211.997894,135.727692 
	C211.989777,144.814392 208.022232,148.751328 198.858963,148.776810 
	C186.700684,148.810623 174.541168,148.871735 162.384628,148.722214 
	C159.489792,148.686600 157.796005,149.447266 156.823593,152.303299 
	C156.140244,154.310394 155.151947,156.499268 153.638992,157.885971 
	C148.650620,162.458069 148.546097,168.177139 148.720291,174.273285 
	C148.972290,183.093353 148.901138,191.928070 148.751953,200.752884 
	C148.540878,213.238297 141.447388,222.119858 129.179932,225.682648 
	C99.979103,226.000000 70.958214,226.000000 41.298943,225.687592 
	C27.475426,220.394669 22.011494,212.553375 22.010561,198.564056 
	C22.006775,141.798019 22.003307,85.031975 22.029440,28.265938 
	C22.030506,25.950006 22.116056,23.595121 22.528660,21.324984 
	C24.533138,10.296361 31.973892,4.389840 42.000000,1.000000 
	C70.687561,1.000000 99.375122,1.000000 128.531342,1.000000 
M141.789139,40.217636 
	C142.347015,37.038647 141.146362,35.691387 137.820267,36.026913 
	C135.227051,36.288502 132.593857,36.153969 129.051971,36.087612 
	C123.692818,36.149345 118.333664,36.211079 112.051018,36.131851 
	C84.515167,36.131851 56.979309,36.131851 29.224575,36.131851 
	C29.224575,64.504333 29.224575,92.244843 29.092756,120.916115 
	C29.132999,126.583260 29.173243,132.250412 29.092649,138.853333 
	C29.136616,143.231369 29.180584,147.609421 29.095808,152.917618 
	C29.134529,159.583389 29.173248,166.249176 29.091043,173.839478 
	C29.076866,175.985886 29.218916,178.147476 29.012335,180.275208 
	C28.692947,183.564804 30.208740,184.400543 34.023006,183.872375 
	C51.352863,183.825974 68.682716,183.779572 86.937454,183.877533 
	C105.125610,183.877533 123.313774,183.877533 141.492462,183.877533 
	C141.492462,178.580307 141.492462,174.058853 141.492462,169.456726 
	C137.529465,170.684540 133.980515,172.095505 130.297150,172.851334 
	C124.941566,173.950287 123.151314,171.601486 125.126663,166.527969 
	C127.296471,160.955017 128.929596,155.316956 127.619202,148.982010 
	C124.930634,148.982010 122.468056,148.982010 119.095909,148.850266 
	C117.269852,148.836609 115.443817,148.818695 113.617737,148.810013 
	C103.071167,148.759872 99.322983,144.976364 99.266792,134.350327 
	C99.237839,128.873810 99.178864,123.397476 99.217392,117.011055 
	C99.169403,112.669853 99.121407,108.328659 99.209038,103.059448 
	C99.182991,96.346596 99.156937,89.633743 99.216530,82.009705 
	C99.167953,77.668724 99.119377,73.327744 99.206680,68.091728 
	C99.226730,67.426773 99.260437,66.761909 99.264801,66.096848 
	C99.349617,53.154026 102.252922,50.202538 115.010315,50.074890 
	C116.006134,50.064930 117.001190,49.977131 118.920158,50.050217 
	C123.291901,50.009876 127.663643,49.969540 132.937271,50.045532 
	C135.784180,50.045532 138.631088,50.045532 141.599625,50.045532 
	C141.599625,46.535172 141.599625,43.795666 141.789139,40.217636 
M134.836105,164.089737 
	C142.876968,161.257980 148.145050,155.675858 151.203476,147.802628 
	C151.952423,145.874664 153.110519,144.105621 154.298477,142.506241 
	C154.655411,142.597946 154.884598,142.444962 155.913910,141.886765 
	C170.061172,141.870483 184.208450,141.844681 198.355713,141.844452 
	C201.990219,141.844406 205.009644,141.385452 204.996628,136.575439 
	C204.929565,111.775833 204.948730,86.975922 204.983719,62.176174 
	C204.988800,58.571381 203.255173,57.084488 199.771576,57.087322 
	C170.477890,57.111134 141.184143,57.116798 111.890472,57.083603 
	C107.873024,57.079048 106.186256,59.027271 106.190514,62.918350 
	C106.217079,87.218788 106.226891,111.519310 106.180176,135.819687 
	C106.172165,139.989502 107.986458,141.940186 112.205757,141.861649 
	C117.696404,141.759430 123.203255,142.070831 128.679092,141.768661 
	C133.365097,141.510086 135.175797,143.869720 135.035095,147.969925 
	C134.853546,153.260376 134.237076,158.535919 133.480835,163.997818 
	C133.688232,164.036621 133.895615,164.075439 134.836105,164.089737 
M115.482155,218.988037 
	C119.464546,218.887405 123.569176,219.374069 127.406311,218.575485 
	C138.700363,216.224976 144.591995,204.219009 141.092072,191.307343 
	C103.949417,191.307343 66.773895,191.307343 29.035490,191.307343 
	C29.035490,193.909897 29.038382,196.193878 29.035011,198.477844 
	C29.015022,212.028564 35.987473,218.985046 49.605293,218.987106 
	C71.232735,218.990356 92.860184,218.987991 115.482155,218.988037 
M116.471466,8.012215 
	C93.346939,8.012645 70.222130,7.946483 47.097992,8.041868 
	C35.700699,8.088880 27.665226,17.575148 29.631618,28.632561 
	C66.899124,28.632561 104.209290,28.632561 141.507553,28.632561 
	C141.807480,18.491405 137.871750,11.587486 129.744934,9.194867 
	C125.869278,8.053831 121.567245,8.361034 116.471466,8.012215 
z"/>
<path fill="#FFFFFF" opacity="1.000000" stroke="none" 
	d="
M41.531342,1.000000 
	C31.973892,4.389840 24.533138,10.296361 22.528660,21.324984 
	C22.116056,23.595121 22.030506,25.950006 22.029440,28.265938 
	C22.003307,85.031975 22.006775,141.798019 22.010561,198.564056 
	C22.011494,212.553375 27.475426,220.394669 40.830284,225.687592 
	C27.685753,226.000000 14.371506,226.000000 1.058616,226.000000 
	C1.059973,150.999985 1.059973,75.999969 1.059973,1.000000 
	C14.434192,1.000000 27.748438,1.000000 41.531342,1.000000 
z"/>
<path fill="#F8E2AE" opacity="1.000000" stroke="none" 
	d="
M154.080505,142.263504 
	C153.110519,144.105621 151.952423,145.874664 151.203476,147.802628 
	C148.145050,155.675858 142.876968,161.257980 134.396942,164.026733 
	C133.957794,163.963745 133.807907,163.817871 133.807922,163.817871 
	C134.237076,158.535919 134.853546,153.260376 135.035095,147.969925 
	C135.175797,143.869720 133.365097,141.510086 128.679092,141.768661 
	C123.203255,142.070831 117.696404,141.759430 112.205757,141.861649 
	C107.986458,141.940186 106.172165,139.989502 106.180176,135.819687 
	C106.226891,111.519310 106.217079,87.218788 106.190514,62.918350 
	C106.186256,59.027271 107.873024,57.079048 111.890472,57.083603 
	C141.184143,57.116798 170.477890,57.111134 199.771576,57.087322 
	C203.255173,57.084488 204.988800,58.571381 204.983719,62.176174 
	C204.948730,86.975922 204.929565,111.775833 204.996628,136.575439 
	C205.009644,141.385452 201.990219,141.844406 198.355713,141.844452 
	C184.208450,141.844681 170.061172,141.870483 155.211121,141.968719 
	C154.508347,142.050659 154.080505,142.263504 154.080505,142.263504 
M186.733002,105.728043 
	C191.316574,102.322067 192.178436,98.560463 189.202667,94.949165 
	C186.615250,91.809219 181.208557,91.404343 178.885864,94.835289 
	C177.552139,96.805336 177.025848,100.192451 177.714188,102.463287 
	C178.833160,106.154694 182.406265,106.618462 186.733002,105.728043 
M155.518066,92.281906 
	C149.917847,94.200020 147.945374,96.768936 149.024170,101.141212 
	C149.970856,104.977989 152.701035,106.451195 156.521805,106.151566 
	C160.338135,105.852272 162.323288,103.310371 162.626282,99.979668 
	C163.015701,95.698807 160.306931,93.304680 155.518066,92.281906 
M121.881676,103.369308 
	C124.627487,106.755455 128.008270,107.201019 131.534576,104.965866 
	C134.684113,102.969536 134.954758,99.664810 133.712326,96.567665 
	C132.359390,93.195091 129.331375,92.254471 125.887878,92.902351 
	C121.733101,93.684052 120.313896,96.870491 121.881676,103.369308 
z"/>
<path fill="#C5E4FA" opacity="1.000000" stroke="none" 
	d="
M29.224575,119.985359 
	C29.224575,92.244843 29.224575,64.504333 29.224575,36.131851 
	C56.979309,36.131851 84.515167,36.131851 112.343742,36.467110 
	C100.409088,49.050137 88.204994,61.321266 75.948471,73.539803 
	C60.396088,89.043976 44.801159,104.505463 29.224575,119.985359 
M45.297741,62.135811 
	C47.604454,64.956612 49.911171,67.777412 51.628136,69.877022 
	C55.588890,65.976891 59.434452,62.190193 62.600010,59.073093 
	C59.020111,55.446621 55.225315,51.602455 52.060551,48.396515 
	C48.463032,51.949501 44.621323,55.743656 40.681717,59.634495 
	C41.797367,60.254356 43.216469,61.042820 45.297741,62.135811 
z"/>
<path fill="#ACB7D0" opacity="1.000000" stroke="none" 
	d="
M114.984894,218.988022 
	C92.860184,218.987991 71.232735,218.990356 49.605293,218.987106 
	C35.987473,218.985046 29.015022,212.028564 29.035011,198.477844 
	C29.038382,196.193878 29.035490,193.909897 29.035490,191.307343 
	C66.773895,191.307343 103.949417,191.307343 141.092072,191.307343 
	C144.591995,204.219009 138.700363,216.224976 127.406311,218.575485 
	C123.569176,219.374069 119.464546,218.887405 114.984894,218.988022 
M78.979744,202.497482 
	C79.577515,205.055359 79.470581,208.227005 80.995262,209.977600 
	C82.222649,211.386856 85.990562,212.132965 87.604752,211.264771 
	C89.636024,210.172241 91.751167,207.131378 91.741623,204.940292 
	C91.732079,202.746964 89.626251,199.678177 87.585381,198.579941 
	C84.298508,196.811157 81.196152,198.567505 78.979744,202.497482 
z"/>
<path fill="#E3F1FE" opacity="1.000000" stroke="none" 
	d="
M99.133453,117.921059 
	C99.178864,123.397476 99.237839,128.873810 99.266792,134.350327 
	C99.322983,144.976364 103.071167,148.759872 113.617737,148.810013 
	C115.443817,148.818695 117.269852,148.836609 119.412170,149.213898 
	C117.806602,151.613968 115.884773,153.650391 113.599365,155.770294 
	C112.094131,157.225311 110.952461,158.596848 109.538025,160.145020 
	C105.667145,163.174698 102.069023,166.027771 98.664291,168.518188 
	C99.047035,165.034012 99.551445,161.882034 99.254036,158.807617 
	C99.150597,157.738358 97.066170,156.113052 95.881943,156.109116 
	C94.728355,156.105270 92.919281,157.657242 92.558868,158.870865 
	C91.964676,160.871750 92.161057,163.158554 92.284691,165.309891 
	C92.486382,168.819809 94.105873,170.618423 97.887207,169.685501 
	C96.948601,171.544662 96.151993,173.172180 94.979774,174.456985 
	C92.082359,177.632660 89.012886,180.651352 86.012573,183.733154 
	C68.682716,183.779572 51.352863,183.825974 33.719841,183.536926 
	C37.653114,178.508270 41.889549,173.815063 46.459557,169.049927 
	C50.181393,165.988113 53.569653,162.998230 57.017555,160.438751 
	C57.134304,162.862091 56.830719,164.962219 57.379498,166.809067 
	C57.726254,167.976028 59.222992,169.260757 60.434505,169.560394 
	C61.342052,169.784866 63.523880,168.596603 63.580070,167.909851 
	C63.915081,163.815308 65.924728,159.382751 62.053040,155.487717 
	C74.437141,142.743164 86.785294,130.332108 99.133453,117.921059 
M80.608650,168.832809 
	C81.009674,165.488083 81.697639,162.137894 81.634354,158.801987 
	C81.615707,157.819504 79.284210,155.951599 78.345963,156.140961 
	C77.046196,156.403275 75.461533,158.059723 75.083557,159.420517 
	C74.528038,161.420471 74.752846,163.704559 74.968338,165.834900 
	C75.263763,168.755630 76.649170,170.493195 80.608650,168.832809 
z"/>
<path fill="#ACB7D0" opacity="1.000000" stroke="none" 
	d="
M116.964905,8.012228 
	C121.567245,8.361034 125.869278,8.053831 129.744934,9.194867 
	C137.871750,11.587486 141.807480,18.491405 141.507553,28.632561 
	C104.209290,28.632561 66.899124,28.632561 29.631618,28.632561 
	C27.665226,17.575148 35.700699,8.088880 47.097992,8.041868 
	C70.222130,7.946483 93.346939,8.012645 116.964905,8.012228 
M94.575195,22.011160 
	C97.071075,22.009113 99.657600,22.403574 102.029968,21.861212 
	C103.532196,21.517776 104.715233,19.778181 106.041420,18.664749 
	C104.645508,17.445587 103.411011,15.539604 101.816628,15.164882 
	C99.293388,14.571854 96.492943,14.730763 93.876556,15.076563 
	C91.006516,15.455887 86.226761,12.970910 86.077759,18.396120 
	C85.924789,23.965549 90.804596,21.347580 94.575195,22.011160 
M64.297501,19.282433 
	C66.488533,21.694687 74.386131,23.483063 76.333328,21.406557 
	C77.354866,20.317167 77.481316,16.802662 76.518791,15.754444 
	C74.209122,13.239164 66.045143,15.377683 64.297501,19.282433 
z"/>
<path fill="#E3F2FF" opacity="1.000000" stroke="none" 
	d="
M29.158665,120.450737 
	C44.801159,104.505463 60.396088,89.043976 75.948471,73.539803 
	C88.204994,61.321266 100.409088,49.050137 112.805489,36.537590 
	C118.333664,36.211079 123.692818,36.149345 129.480133,36.471375 
	C125.937737,41.211922 121.967171,45.568714 117.996597,49.925507 
	C117.001190,49.977131 116.006134,50.064930 115.010315,50.074890 
	C102.252922,50.202538 99.349617,53.154026 99.264801,66.096848 
	C99.260437,66.761909 99.226730,67.426773 98.829102,68.677429 
	C86.687965,80.955208 74.934959,92.657936 63.157787,104.336296 
	C51.856060,115.543198 40.529266,126.724823 29.213486,137.917557 
	C29.173243,132.250412 29.132999,126.583260 29.158665,120.450737 
z"/>
<path fill="#E3F2FF" opacity="1.000000" stroke="none" 
	d="
M29.211967,172.914948 
	C29.173248,166.249176 29.134529,159.583389 29.430023,152.284668 
	C34.529133,146.754623 39.294025,141.857544 44.395065,137.008789 
	C46.224491,138.223969 47.717773,139.390854 49.263283,140.598541 
	C50.707287,138.939072 52.092197,137.347504 53.215458,136.056641 
	C52.024734,134.217300 50.997288,132.630173 50.269943,130.892380 
	C59.062370,122.493576 67.554695,114.245438 76.376617,106.045158 
	C77.762856,106.999664 78.819504,107.906303 79.876144,108.812950 
	C79.189621,107.986618 78.503090,107.160294 77.816566,106.333961 
	C80.518402,104.303520 83.220245,102.273079 85.922081,100.242638 
	C86.347435,100.712509 86.772781,101.182381 87.198135,101.652252 
	C86.133118,100.448753 85.068108,99.245255 84.138367,97.735596 
	C89.226051,92.593254 94.178474,87.757072 99.130890,82.920891 
	C99.156937,89.633743 99.182991,96.346596 98.831192,103.661179 
	C82.225975,120.418228 66.015793,136.590897 49.739738,152.697006 
	C48.387436,154.035187 46.589943,154.923492 44.585609,155.983154 
	C37.663742,155.740509 40.711346,161.084747 39.203407,164.029663 
	C35.665119,167.034851 32.438541,169.974899 29.211967,172.914948 
z"/>
<path fill="#C4E2F8" opacity="1.000000" stroke="none" 
	d="
M98.470901,168.880844 
	C102.069023,166.027771 105.667145,163.174698 109.602509,160.579849 
	C109.990311,162.815918 109.692879,164.892792 110.217346,166.735779 
	C110.550735,167.907272 111.961151,169.083008 113.166977,169.576141 
	C113.862930,169.860733 115.382690,169.037231 116.063744,168.287445 
	C118.405075,165.709854 116.992813,157.794128 113.962936,155.686813 
	C115.884773,153.650391 117.806602,151.613968 119.866959,149.279785 
	C122.468056,148.982010 124.930634,148.982010 127.619202,148.982010 
	C128.929596,155.316956 127.296471,160.955017 125.126663,166.527969 
	C123.151314,171.601486 124.941566,173.950287 130.297150,172.851334 
	C133.980515,172.095505 137.529465,170.684540 141.492462,169.456726 
	C141.492462,174.058853 141.492462,178.580307 141.492462,183.877533 
	C123.313774,183.877533 105.125610,183.877533 86.475014,183.805344 
	C89.012886,180.651352 92.082359,177.632660 94.979774,174.456985 
	C96.151993,173.172180 96.948601,171.544662 97.966064,169.586395 
	C98.142586,168.974731 98.294220,168.901779 98.470901,168.880844 
z"/>
<path fill="#C5E3F9" opacity="1.000000" stroke="none" 
	d="
M99.173706,82.465302 
	C94.178474,87.757072 89.226051,92.593254 83.800491,97.683975 
	C82.096924,96.489288 80.866493,95.040062 79.889183,93.888977 
	C77.463089,96.551956 75.100304,99.145439 72.909264,101.550400 
	C73.883720,102.931427 74.965370,104.464363 76.047020,105.997299 
	C67.554695,114.245438 59.062370,122.493576 49.935417,130.927521 
	C47.553505,133.062393 45.806213,135.011429 44.058918,136.960480 
	C39.294025,141.857544 34.529133,146.754623 29.494394,151.819580 
	C29.180584,147.609421 29.136616,143.231369 29.153067,138.385437 
	C40.529266,126.724823 51.856060,115.543198 63.157787,104.336296 
	C74.934959,92.657936 86.687965,80.955208 98.761169,69.124939 
	C99.119377,73.327744 99.167953,77.668724 99.173706,82.465302 
z"/>
<path fill="#C5E2F8" opacity="1.000000" stroke="none" 
	d="
M44.999294,156.020813 
	C46.589943,154.923492 48.387436,154.035187 49.739738,152.697006 
	C66.015793,136.590897 82.225975,120.418228 98.763382,104.125183 
	C99.121407,108.328659 99.169403,112.669853 99.175423,117.466057 
	C86.785294,130.332108 74.437141,142.743164 61.675278,155.522247 
	C59.827019,157.262970 58.392467,158.635666 56.957912,160.008347 
	C53.569653,162.998230 50.181393,165.988113 46.396488,168.988297 
	C45.999847,168.998596 45.876816,168.876480 45.984253,168.491150 
	C47.105392,163.952942 47.986366,159.812057 44.999294,156.020813 
z"/>
<path fill="#C5E1F8" opacity="1.000000" stroke="none" 
	d="
M118.458374,49.987862 
	C121.967171,45.568714 125.937737,41.211922 129.943375,36.525303 
	C132.593857,36.153969 135.227051,36.288502 137.820267,36.026913 
	C141.146362,35.691387 142.347015,37.038647 141.383240,40.680832 
	C137.996704,44.072422 135.016037,47.000813 132.035385,49.929203 
	C127.663643,49.969540 123.291901,50.009876 118.458374,49.987862 
z"/>
<path fill="#C5E2F8" opacity="1.000000" stroke="none" 
	d="
M29.151505,173.377213 
	C32.438541,169.974899 35.665119,167.034851 39.317444,164.406723 
	C39.894299,168.897781 41.632896,170.735046 45.876816,168.876480 
	C45.876816,168.876480 45.999847,168.998596 46.062920,169.060242 
	C41.889549,173.815063 37.653114,178.508270 33.262627,183.471756 
	C30.208740,184.400543 28.692947,183.564804 29.012335,180.275208 
	C29.218916,178.147476 29.076866,175.985886 29.151505,173.377213 
z"/>
<path fill="#E4F4FF" opacity="1.000000" stroke="none" 
	d="
M132.486328,49.987366 
	C135.016037,47.000813 137.996704,44.072422 141.288483,41.100098 
	C141.599625,43.795666 141.599625,46.535172 141.599625,50.045532 
	C138.631088,50.045532 135.784180,50.045532 132.486328,49.987366 
z"/>
<path fill="#86649E" opacity="1.000000" stroke="none" 
	d="
M154.189484,142.384872 
	C154.080505,142.263504 154.508347,142.050659 154.747192,142.048965 
	C154.884598,142.444962 154.655411,142.597946 154.189484,142.384872 
z"/>
<path fill="#F8E2AE" opacity="1.000000" stroke="none" 
	d="
M134.030396,164.039001 
	C133.895615,164.075439 133.688232,164.036621 133.644379,163.907837 
	C133.807907,163.817871 133.957794,163.963745 134.030396,164.039001 
z"/>
<path fill="#8E6D9F" opacity="1.000000" stroke="none" 
	d="
M186.342941,105.852516 
	C182.406265,106.618462 178.833160,106.154694 177.714188,102.463287 
	C177.025848,100.192451 177.552139,96.805336 178.885864,94.835289 
	C181.208557,91.404343 186.615250,91.809219 189.202667,94.949165 
	C192.178436,98.560463 191.316574,102.322067 186.342941,105.852516 
z"/>
<path fill="#8E6D9F" opacity="1.000000" stroke="none" 
	d="
M155.885956,92.331009 
	C160.306931,93.304680 163.015701,95.698807 162.626282,99.979668 
	C162.323288,103.310371 160.338135,105.852272 156.521805,106.151566 
	C152.701035,106.451195 149.970856,104.977989 149.024170,101.141212 
	C147.945374,96.768936 149.917847,94.200020 155.885956,92.331009 
z"/>
<path fill="#8D6C9F" opacity="1.000000" stroke="none" 
	d="
M121.644974,103.033112 
	C120.313896,96.870491 121.733101,93.684052 125.887878,92.902351 
	C129.331375,92.254471 132.359390,93.195091 133.712326,96.567665 
	C134.954758,99.664810 134.684113,102.969536 131.534576,104.965866 
	C128.008270,107.201019 124.627487,106.755455 121.644974,103.033112 
z"/>
<path fill="#FCF7F8" opacity="1.000000" stroke="none" 
	d="
M44.966660,61.983543 
	C43.216469,61.042820 41.797367,60.254356 40.681717,59.634495 
	C44.621323,55.743656 48.463032,51.949501 52.060551,48.396515 
	C55.225315,51.602455 59.020111,55.446621 62.600010,59.073093 
	C59.434452,62.190193 55.588890,65.976891 51.628136,69.877022 
	C49.911171,67.777412 47.604454,64.956612 44.966660,61.983543 
z"/>
<path fill="#8E6EA0" opacity="1.000000" stroke="none" 
	d="
M79.082878,202.133636 
	C81.196152,198.567505 84.298508,196.811157 87.585381,198.579941 
	C89.626251,199.678177 91.732079,202.746964 91.741623,204.940292 
	C91.751167,207.131378 89.636024,210.172241 87.604752,211.264771 
	C85.990562,212.132965 82.222649,211.386856 80.995262,209.977600 
	C79.470581,208.227005 79.577515,205.055359 79.082878,202.133636 
z"/>
<path fill="#9273A4" opacity="1.000000" stroke="none" 
	d="
M98.664291,168.518188 
	C98.294220,168.901779 98.142586,168.974731 97.937134,169.198822 
	C94.105873,170.618423 92.486382,168.819809 92.284691,165.309891 
	C92.161057,163.158554 91.964676,160.871750 92.558868,158.870865 
	C92.919281,157.657242 94.728355,156.105270 95.881943,156.109116 
	C97.066170,156.113052 99.150597,157.738358 99.254036,158.807617 
	C99.551445,161.882034 99.047035,165.034012 98.664291,168.518188 
z"/>
<path fill="#8F70A2" opacity="1.000000" stroke="none" 
	d="
M57.017555,160.438751 
	C58.392467,158.635666 59.827019,157.262970 61.639336,155.855743 
	C65.924728,159.382751 63.915081,163.815308 63.580070,167.909851 
	C63.523880,168.596603 61.342052,169.784866 60.434505,169.560394 
	C59.222992,169.260757 57.726254,167.976028 57.379498,166.809067 
	C56.830719,164.962219 57.134304,162.862091 57.017555,160.438751 
z"/>
<path fill="#8F70A2" opacity="1.000000" stroke="none" 
	d="
M113.599365,155.770294 
	C116.992813,157.794128 118.405075,165.709854 116.063744,168.287445 
	C115.382690,169.037231 113.862930,169.860733 113.166977,169.576141 
	C111.961151,169.083008 110.550735,167.907272 110.217346,166.735779 
	C109.692879,164.892792 109.990311,162.815918 109.875275,160.403229 
	C110.952461,158.596848 112.094131,157.225311 113.599365,155.770294 
z"/>
<path fill="#8F6FA1" opacity="1.000000" stroke="none" 
	d="
M80.274246,169.048935 
	C76.649170,170.493195 75.263763,168.755630 74.968338,165.834900 
	C74.752846,163.704559 74.528038,161.420471 75.083557,159.420517 
	C75.461533,158.059723 77.046196,156.403275 78.345963,156.140961 
	C79.284210,155.951599 81.615707,157.819504 81.634354,158.801987 
	C81.697639,162.137894 81.009674,165.488083 80.274246,169.048935 
z"/>
<path fill="#8D6C9F" opacity="1.000000" stroke="none" 
	d="
M94.099480,22.011166 
	C90.804596,21.347580 85.924789,23.965549 86.077759,18.396120 
	C86.226761,12.970910 91.006516,15.455887 93.876556,15.076563 
	C96.492943,14.730763 99.293388,14.571854 101.816628,15.164882 
	C103.411011,15.539604 104.645508,17.445587 106.041428,18.664753 
	C104.715233,19.778181 103.532196,21.517776 102.029968,21.861212 
	C99.657600,22.403574 97.071075,22.009113 94.099480,22.011166 
z"/>
<path fill="#8E6DA0" opacity="1.000000" stroke="none" 
	d="
M64.230743,18.893284 
	C66.045143,15.377683 74.209122,13.239164 76.518791,15.754444 
	C77.481316,16.802662 77.354866,20.317167 76.333328,21.406557 
	C74.386131,23.483063 66.488533,21.694687 64.230743,18.893284 
z"/>
<path fill="#FDF7F8" opacity="1.000000" stroke="none" 
	d="
M76.376617,106.045158 
	C74.965370,104.464363 73.883720,102.931427 72.909264,101.550400 
	C75.100304,99.145439 77.463089,96.551956 79.889183,93.888977 
	C80.866493,95.040062 82.096924,96.489288 83.665222,97.990135 
	C85.068108,99.245255 86.133118,100.448753 87.198135,101.652252 
	C86.772781,101.182381 86.347435,100.712509 85.922081,100.242638 
	C83.220245,102.273079 80.518402,104.303520 77.816566,106.333961 
	C78.503090,107.160294 79.189621,107.986618 79.876144,108.812950 
	C78.819504,107.906303 77.762856,106.999664 76.376617,106.045158 
z"/>
<path fill="#8E6FA1" opacity="1.000000" stroke="none" 
	d="
M45.984253,168.491150 
	C41.632896,170.735046 39.894299,168.897781 39.629162,164.341583 
	C40.711346,161.084747 37.663742,155.740509 44.585609,155.983154 
	C47.986366,159.812057 47.105392,163.952942 45.984253,168.491150 
z"/>
<path fill="#FDF7F8" opacity="1.000000" stroke="none" 
	d="
M44.395065,137.008789 
	C45.806213,135.011429 47.553505,133.062393 49.635319,131.078186 
	C50.997288,132.630173 52.024734,134.217300 53.215458,136.056641 
	C52.092197,137.347504 50.707287,138.939072 49.263283,140.598541 
	C47.717773,139.390854 46.224491,138.223969 44.395065,137.008789 
z"/>
</svg>