<svg width="17" height="11" viewBox="0 0 17 11" fill="none" xmlns="http://www.w3.org/2000/svg">
<path d="M15.8434 6.63069L12.4502 10.6141C12.2632 10.8337 12.0181 10.9434 11.773 10.9434C11.5279 10.9434 11.2828 10.8337 11.0958 10.6141C10.7218 10.175 10.7218 9.46319 11.0958 9.02412L12.8541 6.96L1.75847 6.96C1.22956 6.96 0.800781 6.45664 0.800781 5.83572C0.800781 5.21479 1.22956 4.71143 1.75847 4.71143L12.8541 4.71143L11.0958 2.64731C10.7218 2.20825 10.7218 1.4964 11.0958 1.05733C11.4698 0.61826 12.0762 0.61826 12.4502 1.05733L15.8434 5.04074C16.2174 5.47977 16.2174 6.19166 15.8434 6.63069Z" fill="white"/>
</svg>
