<svg width="141" height="30" viewBox="0 0 141 30" fill="none" xmlns="http://www.w3.org/2000/svg">
<path d="M7.71989 23V3.70027H0.130846V0.102014H19.5614V3.70027H11.9724V23H7.71989ZM28.782 23.229C26.8411 23.229 25.1401 22.8473 23.679 22.0841C22.2397 21.299 21.1166 20.2304 20.3097 18.8784C19.5246 17.5263 19.1321 15.9889 19.1321 14.2661C19.1321 12.5214 19.5137 10.984 20.277 9.65375C21.0621 8.30167 22.1306 7.24401 23.4827 6.48074C24.8566 5.71747 26.4158 5.33584 28.1604 5.33584C29.8614 5.33584 31.3771 5.70657 32.7073 6.44803C34.0376 7.18949 35.0843 8.23625 35.8476 9.58832C36.6109 10.9404 36.9925 12.5323 36.9925 14.3642C36.9925 14.5386 36.9816 14.7349 36.9598 14.953C36.9598 15.1711 36.9489 15.3782 36.9271 15.5745H22.3705V12.8595H34.7681L33.1653 13.71C33.1871 12.7068 32.9799 11.8236 32.5438 11.0603C32.1076 10.2971 31.5079 9.69736 30.7446 9.26121C30.0032 8.82506 29.1418 8.60698 28.1604 8.60698C27.1573 8.60698 26.2741 8.82506 25.5108 9.26121C24.7694 9.69736 24.1805 10.308 23.7444 11.093C23.33 11.8563 23.1229 12.7613 23.1229 13.8081V14.4623C23.1229 15.5091 23.3628 16.4359 23.8425 17.2428C24.3223 18.0497 24.9983 18.6712 25.8706 19.1073C26.7429 19.5435 27.7461 19.7616 28.8801 19.7616C29.8614 19.7616 30.7446 19.6089 31.5297 19.3036C32.3148 18.9983 33.0126 18.5185 33.6232 17.8643L35.8149 20.3831C35.0298 21.299 34.0376 22.0078 32.8382 22.5093C31.6606 22.9891 30.3085 23.229 28.782 23.229ZM50.8317 5.33584C52.2274 5.33584 53.4705 5.60843 54.5608 6.15362C55.673 6.69881 56.5453 7.53841 57.1778 8.6724C57.8102 9.78459 58.1264 11.2239 58.1264 12.9903V23H54.0375V13.5137C54.0375 11.9654 53.6667 10.8095 52.9253 10.0463C52.2056 9.28302 51.1916 8.90138 49.8831 8.90138C48.9236 8.90138 48.0731 9.09765 47.3316 9.49019C46.5902 9.88273 46.0123 10.4715 45.5979 11.2566C45.2054 12.0199 45.0091 12.9903 45.0091 14.1679V23H40.9202V5.53211H44.8128V10.2426L44.1259 8.80325C44.7365 7.69106 45.6197 6.84056 46.7755 6.25176C47.9531 5.64115 49.3052 5.33584 50.8317 5.33584ZM74.0755 23V19.4672L73.8465 18.7148V12.5323C73.8465 11.3329 73.4867 10.4061 72.767 9.75188C72.0474 9.07584 70.957 8.73783 69.4959 8.73783C68.5146 8.73783 67.5441 8.89048 66.5846 9.19579C65.6469 9.50109 64.8509 9.92634 64.1966 10.4715L62.5938 7.49479C63.5315 6.77514 64.6437 6.24086 65.9304 5.89193C67.2388 5.5212 68.5909 5.33584 69.9866 5.33584C72.5162 5.33584 74.468 5.94645 75.8419 7.16768C77.2376 8.3671 77.9354 10.2316 77.9354 12.7613V23H74.0755ZM68.58 23.229C67.2715 23.229 66.1266 23.0109 65.1453 22.5748C64.1639 22.1168 63.4007 21.4953 62.8555 20.7102C62.3321 19.9033 62.0704 18.9983 62.0704 17.9952C62.0704 17.0138 62.2994 16.1306 62.7573 15.3455C63.2371 14.5605 64.0113 13.9389 65.0799 13.481C66.1484 13.023 67.5659 12.794 69.3323 12.794H74.4026V15.5091H69.6267C68.2311 15.5091 67.2933 15.7381 66.8136 16.196C66.3338 16.6322 66.0939 17.1774 66.0939 17.8316C66.0939 18.5731 66.3883 19.1619 66.9771 19.598C67.5659 20.0342 68.3837 20.2522 69.4305 20.2522C70.4336 20.2522 71.3277 20.0233 72.1128 19.5653C72.9197 19.1073 73.4976 18.4313 73.8465 17.5372L74.5335 19.9906C74.1409 21.0155 73.4322 21.8115 72.4072 22.3785C71.4041 22.9455 70.1283 23.229 68.58 23.229ZM93.0946 5.33584C94.4903 5.33584 95.7333 5.60843 96.8237 6.15362C97.9359 6.69881 98.8082 7.53841 99.4406 8.6724C100.073 9.78459 100.389 11.2239 100.389 12.9903V23H96.3003V13.5137C96.3003 11.9654 95.9296 10.8095 95.1881 10.0463C94.4685 9.28302 93.4544 8.90138 92.146 8.90138C91.1865 8.90138 90.336 9.09765 89.5945 9.49019C88.853 9.88273 88.2751 10.4715 87.8608 11.2566C87.4683 12.0199 87.272 12.9903 87.272 14.1679V23H83.1831V5.53211H87.0757V10.2426L86.3888 8.80325C86.9994 7.69106 87.8826 6.84056 89.0384 6.25176C90.216 5.64115 91.5681 5.33584 93.0946 5.33584ZM113.623 23.229C111.791 23.229 110.155 22.8473 108.716 22.0841C107.298 21.299 106.186 20.2304 105.379 18.8784C104.572 17.5263 104.169 15.9889 104.169 14.2661C104.169 12.5214 104.572 10.984 105.379 9.65375C106.186 8.30167 107.298 7.24401 108.716 6.48074C110.155 5.71747 111.791 5.33584 113.623 5.33584C115.324 5.33584 116.817 5.68476 118.104 6.3826C119.412 7.05864 120.405 8.06179 121.081 9.39205L117.94 11.2239C117.417 10.3952 116.774 9.78459 116.01 9.39205C115.269 8.99952 114.462 8.80325 113.59 8.80325C112.587 8.80325 111.682 9.02132 110.875 9.45748C110.068 9.89363 109.436 10.526 108.978 11.3547C108.52 12.1616 108.291 13.1321 108.291 14.2661C108.291 15.4 108.52 16.3814 108.978 17.2101C109.436 18.017 110.068 18.6385 110.875 19.0746C111.682 19.5108 112.587 19.7289 113.59 19.7289C114.462 19.7289 115.269 19.5326 116.01 19.1401C116.774 18.7475 117.417 18.1369 117.94 17.3082L121.081 19.1401C120.405 20.4485 119.412 21.4626 118.104 22.1822C116.817 22.8801 115.324 23.229 113.623 23.229ZM125.831 29.575C124.981 29.575 124.13 29.4332 123.28 29.1497C122.429 28.8662 121.72 28.4737 121.153 27.9721L122.789 24.9627C123.203 25.3334 123.672 25.6278 124.196 25.8459C124.719 26.064 125.253 26.173 125.798 26.173C126.54 26.173 127.14 25.9876 127.597 25.6169C128.055 25.2462 128.481 24.6247 128.873 23.7524L129.887 21.4626L130.214 20.9719L136.822 5.53211H140.747L132.57 24.4066C132.024 25.715 131.414 26.7509 130.738 27.5142C130.084 28.2774 129.342 28.8117 128.513 29.117C127.707 29.4223 126.812 29.575 125.831 29.575ZM129.429 23.6215L121.546 5.53211H125.798L132.21 20.6121L129.429 23.6215Z" fill="#454545"/>
</svg>
