<svg width="17" height="11" viewBox="0 0 17 11" fill="none" xmlns="http://www.w3.org/2000/svg">
<path d="M15.728 6.42841L12.219 10.5478C12.0256 10.7749 11.7722 10.8884 11.5187 10.8884C11.2652 10.8884 11.0118 10.7749 10.8184 10.5478C10.4316 10.0938 10.4316 9.35761 10.8184 8.90355L12.6367 6.76896L1.16226 6.76896C0.615291 6.76896 0.171875 6.24841 0.171875 5.60629C0.171875 4.96417 0.615291 4.44362 1.16226 4.44362L12.6367 4.44362L10.8184 2.30903C10.4316 1.85497 10.4316 1.11882 10.8184 0.664763C11.2052 0.210704 11.8322 0.210704 12.219 0.664763L15.728 4.78417C16.1148 5.2382 16.1148 5.97438 15.728 6.42841Z" fill="#645BE1"/>
</svg>
