<svg width="6" height="9" viewBox="0 0 6 9" fill="none" xmlns="http://www.w3.org/2000/svg">
<path d="M2.53307 8.83526L0.19342 6.84228C0.0644662 6.73244 1.88845e-07 6.58849 1.95138e-07 6.44453C2.01431e-07 6.30056 0.0644662 6.15661 0.19342 6.04677C0.451307 5.82711 0.86941 5.82711 1.1273 6.04677L2.33965 7.0795L2.33965 0.5625C2.33965 0.251842 2.6353 -1.47075e-07 3 -1.31134e-07C3.3647 -1.15193e-07 3.66035 0.251842 3.66035 0.5625L3.66035 7.0795L4.87271 6.04677C5.13059 5.82711 5.5487 5.82711 5.80658 6.04677C6.06447 6.26646 6.06447 6.62259 5.80658 6.84229L3.46693 8.83526C3.20906 9.05491 2.79094 9.05491 2.53307 8.83526Z" fill="black"/>
</svg>
