<svg width="76" height="75" viewBox="0 0 76 75" fill="none" xmlns="http://www.w3.org/2000/svg">
<path d="M73.9533 19.6897C73.9531 19.6897 73.9531 19.6897 73.953 19.6897L73.9505 19.6872L69.1081 18.9963C68.4275 18.8994 67.9543 18.269 68.0512 17.5884C68.0977 17.2614 68.2725 16.9663 68.5367 16.7681L72.4505 13.8328C73.0005 13.4203 73.1119 12.6401 72.6994 12.09L68.218 6.11482C67.8055 5.56476 67.0253 5.45334 66.4753 5.86585L62.5628 8.80116C62.015 9.21678 61.2342 9.10973 60.8186 8.562C60.6168 8.29607 60.5303 7.96012 60.5785 7.62978L61.2706 2.78738C61.3682 2.10677 60.8956 1.47611 60.2152 1.37839C60.2147 1.37839 60.2142 1.37823 60.2138 1.37823L52.8244 0.322614C52.144 0.224894 51.513 0.697308 51.4153 1.37792C51.4153 1.37808 51.4153 1.37808 51.4153 1.37823L50.7232 6.22063C50.6262 6.90124 49.9959 7.37443 49.3153 7.27749C48.9882 7.23096 48.6932 7.05622 48.4949 6.792L45.5608 2.87825C45.1483 2.32819 44.3681 2.21678 43.8181 2.62929L40.0774 5.43638C38.385 5.2565 36.6783 5.2565 34.986 5.43638C23.903 6.70315 15.2117 15.5418 14.1313 26.6446C14.0977 26.9969 14.0853 27.3467 14.0678 27.6965H13.6944C13.1037 27.6976 12.5951 28.1136 12.477 28.6923L11.6168 32.7828L8.17108 30.4065C7.67657 30.0652 7.00872 30.1261 6.58392 30.5509L2.84942 34.2854C2.42525 34.71 2.36456 35.3769 2.70502 35.8713L5.0702 39.3107L0.978441 40.1709C0.406129 40.2963 -0.00124199 40.8038 2.84511e-06 41.3896V46.3689C-0.000308363 46.9577 0.412198 47.4663 0.988399 47.5876L5.08016 48.4478L2.71498 51.8873C2.37452 52.3816 2.4352 53.0486 2.85938 53.4732L6.59388 57.2077C7.01868 57.6325 7.68653 57.6933 8.18104 57.3521L11.6205 54.9807L12.4807 59.0725C12.5988 59.6511 13.1075 60.0672 13.6981 60.0683H18.6775C19.2663 60.0686 19.7748 59.6561 19.8961 59.0799L20.7563 54.9882L24.1958 57.3533C24.6902 57.6938 25.3571 57.6331 25.7817 57.2089L27.7149 55.2695V58.8173C27.7205 60.5882 28.6693 62.2219 30.2046 63.1045V70.0207C30.2046 72.7707 32.4339 75.0001 35.1839 75.0001H40.1633C42.9132 75.0001 45.1426 72.7707 45.1426 70.0207V63.1045C46.6779 62.2219 47.6266 60.5882 47.6322 58.8173V53.8902C47.666 51.8171 48.7506 49.9032 50.5115 48.8088C51.5446 48.1386 52.5243 47.3894 53.4419 46.5681L51.7813 44.7133C50.9605 45.449 50.0835 46.1195 49.1584 46.7187C46.6866 48.2701 45.1735 50.972 45.1426 53.8902V58.8173C45.1426 60.1923 44.028 61.3069 42.6529 61.3069H32.6943C31.3192 61.3069 30.2046 60.1923 30.2046 58.8173V53.7869C30.1758 50.9239 28.6865 48.2742 26.256 46.7611C16.3896 40.5615 13.417 27.5376 19.6165 17.6712C23.4631 11.5496 30.1761 7.82366 37.406 7.79783C37.3874 7.84218 37.3711 7.88746 37.3574 7.93352C37.3112 8.26028 37.3968 8.59219 37.5952 8.85594L40.5292 12.7684C40.8386 13.1688 40.8683 13.7187 40.6039 14.1502C40.3494 14.5843 39.8572 14.8212 39.3591 14.749L34.5167 14.0568C33.8361 13.9593 33.2054 14.4318 33.1077 15.1123C33.1077 15.1128 33.1076 15.1132 33.1076 15.1137L32.0507 22.5068C31.9531 23.1872 32.4257 23.818 33.1061 23.9158C33.1066 23.9158 33.1071 23.9159 33.1076 23.9159L37.9499 24.608C38.6306 24.705 39.1037 25.3353 39.0068 26.0159C38.9603 26.343 38.7855 26.638 38.5213 26.8363L34.6088 29.7704C34.0588 30.1829 33.9473 30.9631 34.3598 31.5131L38.8412 37.4883C39.2537 38.0384 40.034 38.1498 40.584 37.7373L44.4978 34.8032C45.0483 34.3915 45.8285 34.504 46.2402 35.0547C46.4372 35.3181 46.522 35.6489 46.4758 35.9746L45.7849 40.817C45.6872 41.4975 46.1596 42.1284 46.8402 42.2261C46.8404 42.2261 46.8404 42.2261 46.8405 42.2261L54.2348 43.283C54.293 43.2905 54.3517 43.2942 54.4104 43.2942C55.0301 43.295 55.5559 42.8397 55.644 42.2261L56.3349 37.3837C56.4318 36.7031 57.0622 36.2299 57.7428 36.3269C58.0699 36.3734 58.3649 36.5482 58.5631 36.8124L61.4984 40.7249C61.9109 41.2749 62.6911 41.3863 63.2412 40.9738L69.2164 36.4924C69.7664 36.0799 69.8779 35.2997 69.4654 34.7497L66.5313 30.8372C66.2233 30.4362 66.1936 29.8872 66.4566 29.4554C66.7057 29.0155 67.2024 28.7771 67.7014 28.8579L72.5438 29.5488C73.2243 29.6465 73.8553 29.1739 73.953 28.4935C73.953 28.4933 73.953 28.4933 73.953 28.4932L75.0086 21.0989C75.1063 20.4182 74.6339 19.7874 73.9533 19.6897ZM32.6943 63.7966H42.6529V66.2863H32.6943V63.7966ZM32.6943 68.7759H42.6529V70.0207C42.6529 71.3958 41.5383 72.5104 40.1633 72.5104H35.1839C33.8089 72.5104 32.6943 71.3958 32.6943 70.0207V68.7759ZM22.7842 47.3088C23.4638 47.8646 24.174 48.3821 24.9116 48.8586C26.0878 49.6019 26.9732 50.7265 27.4199 52.0441L24.7497 54.7093L22.1642 52.9267C21.0321 52.1465 19.4818 52.4319 18.7014 53.5641C18.5144 53.8356 18.3831 54.1415 18.3152 54.4641L17.6629 57.5724H14.704L14.0517 54.4691C13.7685 53.1236 12.4482 52.2623 11.1027 52.5455C10.7801 52.6133 10.4742 52.7447 10.2026 52.9317L7.61588 54.7093L5.3478 52.4462L7.12916 49.8619C7.91013 48.7302 7.62569 47.1798 6.49398 46.3988C6.22229 46.2113 5.91607 46.0797 5.59303 46.0117L2.48967 45.3581V42.4004L5.59303 41.7469C6.93807 41.4617 7.79732 40.1401 7.5121 38.7949C7.44441 38.4758 7.31479 38.1731 7.1304 37.9041L5.3478 35.3123L7.61588 33.0492L10.2039 34.8318C11.3365 35.6113 12.8868 35.3249 13.6662 34.1923C13.853 33.9211 13.984 33.6155 14.0517 33.2932L14.2695 32.2575C14.469 33.6919 14.7993 35.1048 15.2567 36.4788C11.1607 36.967 8.23612 40.6835 8.72441 44.7794C9.21269 48.8754 12.9291 51.8 17.0251 51.3117C19.4908 51.0176 21.6492 49.5174 22.7842 47.3088ZM20.8509 45.5548C19.9214 48.1386 17.0733 49.4796 14.4895 48.5502C11.9057 47.6206 10.5647 44.7726 11.4942 42.1888C12.2053 40.2122 14.082 38.8956 16.1827 38.9C16.1988 38.9 16.2138 38.9 16.23 38.9C17.3747 41.3683 18.9381 43.6197 20.8509 45.5548ZM71.6575 26.9048L68.0475 26.3894C66.0057 26.0978 64.1141 27.5167 63.8225 29.5584C63.6825 30.5389 63.9377 31.5349 64.5321 32.3272L66.7193 35.2439L62.7358 38.2315L60.5474 35.3161C59.31 33.6659 56.9693 33.3312 55.3192 34.5686C54.5269 35.1627 54.003 36.0473 53.8626 37.0277L53.3585 40.6427L48.4302 39.9381L48.9455 36.3281C49.2379 34.2864 47.8198 32.3943 45.7781 32.1021C44.797 31.9616 43.8005 32.2168 43.0077 32.8115L40.0911 34.9986L37.1035 31.0152L40.0189 28.8268C41.669 27.5894 42.0037 25.2487 40.7664 23.5986C40.1723 22.8063 39.2877 22.2824 38.3072 22.142L34.6972 21.6267L35.4018 16.6984L39.0118 17.2137C41.0535 17.5061 42.9456 16.0879 43.2378 14.0463C43.3783 13.0652 43.1232 12.0687 42.5284 11.2759L40.3338 8.35676L44.3173 5.36916L46.5057 8.2858C47.743 9.93598 50.0838 10.2707 51.7338 9.03332C52.5261 8.43923 53.0501 7.55462 53.1904 6.57416L53.7058 2.96415L58.6341 3.66748L58.1187 7.27749C57.8271 9.31932 59.2459 11.2108 61.2877 11.5024C62.2682 11.6425 63.2642 11.3873 64.0566 10.7929L66.9732 8.60572L69.9608 12.5892L67.0442 14.7776C65.394 16.015 65.0593 18.3557 66.2966 20.0057C66.8907 20.7981 67.7753 21.322 68.7558 21.4623L72.3658 21.9777L71.6575 26.9048Z" fill="black"/>
<path d="M53.529 11.8423C48.029 11.8423 43.5703 16.301 43.5703 21.8009C43.5703 27.3009 48.029 31.7596 53.529 31.7596C59.0289 31.7596 63.4876 27.3009 63.4876 21.8009C63.4814 16.3035 59.0265 11.8484 53.529 11.8423ZM53.529 29.2699C49.4039 29.2699 46.06 25.926 46.06 21.8009C46.06 17.6759 49.4039 14.3319 53.529 14.3319C57.654 14.3319 60.998 17.6759 60.998 21.8009C60.9931 25.924 57.652 29.2651 53.529 29.2699Z" fill="black"/>
<path d="M38.9174 55.0828H36.4277V58.8173H38.9174V55.0828Z" fill="black"/>
<path d="M32.2296 42.8573C24.5451 39.8554 20.7491 31.1923 23.7512 23.5078C24.9145 20.5302 27.0022 18.0043 29.7076 16.3013L28.3768 14.1951C20.2332 19.3255 17.7903 30.0863 22.9207 38.23C24.9077 41.3839 27.8535 43.8177 31.3259 45.174C34.3993 46.3516 36.4289 49.3018 36.4297 52.5931H38.9193C38.9232 48.2748 36.2621 44.402 32.2296 42.8573Z" fill="black"/>
<path d="M70.04 46.3689H61.3262V48.8586H70.04V46.3689Z" fill="black"/>
<path d="M60.8768 52.8806L59.2832 54.7935L66.7527 61.0166L68.3464 59.1038L60.8768 52.8806Z" fill="black"/>
<path d="M56.3451 56.3276H53.8555V65.0415H56.3451V56.3276Z" fill="black"/>
<path d="M11.2294 19.0191L1.27148 21.5083L1.87493 23.9223L11.8329 21.4331L11.2294 19.0191Z" fill="black"/>
<path d="M4.78416 6.7679L3.33789 8.79272L12.051 15.0162L13.4973 12.9914L4.78416 6.7679Z" fill="black"/>
<path d="M16.4178 9.58949e-06L14.0059 0.616699L16.5519 10.5746L18.9638 9.95789L16.4178 9.58949e-06Z" fill="black"/>
</svg>
