<svg width="25" height="25" viewBox="0 0 25 25" fill="none" xmlns="http://www.w3.org/2000/svg">
<path d="M12.5 0C5.59642 0 0 5.59642 0 12.5C0 19.4036 5.59642 25 12.5 25C19.4036 25 25 19.4036 25 12.5C25 5.59642 19.4036 0 12.5 0ZM18.6178 10.737L12.2264 16.5232C12.0697 16.6652 11.8871 16.7607 11.6958 16.8108C11.5309 16.8843 11.3539 16.9223 11.1763 16.9223C10.8601 16.9223 10.5434 16.8058 10.2958 16.5709L6.36058 12.8354C5.84833 12.3491 5.82742 11.5397 6.31367 11.0274C6.7995 10.5152 7.60917 10.494 8.12167 10.9803L11.2539 13.9535L16.9009 8.84058C17.4244 8.36658 18.2332 8.40658 18.7072 8.93025C19.1812 9.454 19.1412 10.2627 18.6178 10.737Z" fill="#645BE1"/>
</svg>
