<svg width="14" height="14" viewBox="0 0 14 14" fill="none" xmlns="http://www.w3.org/2000/svg">
<path d="M11.1089 1.28044H10.2417V0.760094C10.2417 0.472862 10.0086 0.239746 9.72135 0.239746C9.43411 0.239746 9.201 0.472862 9.201 0.760094V1.28044H4.69132V0.760094C4.69132 0.472862 4.4582 0.239746 4.17097 0.239746C3.88374 0.239746 3.65062 0.472862 3.65062 0.760094V1.28044H2.78338C1.10578 1.28044 0.181641 2.20458 0.181641 3.88218V11.167C0.181641 12.8446 1.10578 13.7688 2.78338 13.7688H11.1089C12.7865 13.7688 13.7107 12.8446 13.7107 11.167V3.88218C13.7107 2.20458 12.7865 1.28044 11.1089 1.28044ZM2.78338 2.32114H3.65062V2.84148C3.65062 3.12872 3.88374 3.36183 4.17097 3.36183C4.4582 3.36183 4.69132 3.12872 4.69132 2.84148V2.32114H9.201V2.84148C9.201 3.12872 9.43411 3.36183 9.72135 3.36183C10.0086 3.36183 10.2417 3.12872 10.2417 2.84148V2.32114H11.1089C12.2031 2.32114 12.67 2.78806 12.67 3.88218V4.40253H1.22234V3.88218C1.22234 2.78806 1.68926 2.32114 2.78338 2.32114ZM11.1089 12.7281H2.78338C1.68926 12.7281 1.22234 12.2612 1.22234 11.167V5.44322H12.67V11.167C12.67 12.2612 12.2031 12.7281 11.1089 12.7281Z" fill="#636363"/>
</svg>
