<svg width="18" height="12" viewBox="0 0 18 12" fill="none" xmlns="http://www.w3.org/2000/svg">
<path d="M17.6705 6.93385L13.6846 11.6132C13.4649 11.8711 13.177 12 12.8891 12C12.6011 12 12.3132 11.8711 12.0935 11.6132C11.6542 11.0974 11.6542 10.2612 12.0935 9.74541L14.159 7.32069L1.125 7.32069C0.503684 7.32069 0 6.72939 0 6C0 5.2706 0.503684 4.6793 1.125 4.6793L14.159 4.6793L12.0935 2.25458C11.6542 1.73881 11.6542 0.902603 12.0935 0.38683C12.5329 -0.128943 13.2452 -0.128943 13.6846 0.38683L17.6705 5.06614C18.1098 5.58187 18.1098 6.41812 17.6705 6.93385Z" fill="white"/>
</svg>
