<svg width="17" height="17" viewBox="0 0 17 17" fill="none" xmlns="http://www.w3.org/2000/svg">
<path d="M16.628 15.9383L12.8174 12.1277C13.9869 10.794 14.6322 9.10646 14.6322 7.31611C14.6322 5.36181 13.8711 3.52469 12.4893 2.14291C11.1075 0.761142 9.2704 0 7.31611 0C5.36181 0 3.52469 0.761142 2.14291 2.14291C0.761142 3.52469 0 5.36181 0 7.31611C0 9.2704 0.761142 11.1075 2.14291 12.4893C3.52469 13.8711 5.36181 14.6322 7.31611 14.6322C9.10646 14.6322 10.794 13.9869 12.1277 12.8174L15.9383 16.628C16.0335 16.7232 16.1583 16.7708 16.2831 16.7708C16.4079 16.7708 16.5327 16.7232 16.628 16.628C16.8185 16.4374 16.8185 16.1288 16.628 15.9383ZM2.83261 11.7996C1.63517 10.6019 0.975481 9.00962 0.975481 7.31611C0.975481 5.62259 1.63517 4.03029 2.83261 2.83261C4.03029 1.63517 5.62259 0.975481 7.31611 0.975481C9.00962 0.975481 10.6019 1.63517 11.7996 2.83261C12.997 4.03029 13.6567 5.62259 13.6567 7.31611C13.6567 9.00962 12.997 10.6019 11.7996 11.7996C10.6019 12.997 9.00962 13.6567 7.31611 13.6567C5.62259 13.6567 4.03029 12.997 2.83261 11.7996Z" fill="white"/>
</svg>
