<svg width="42" height="37" viewBox="0 0 42 37" fill="none" xmlns="http://www.w3.org/2000/svg">
<path d="M2.10973 -2.722e-06L14.9411 -4.78488e-07C16.1061 -2.74801e-07 17.0515 0.945469 17.0515 2.11042L17.0515 14.9418C17.0515 16.1068 16.1061 17.0522 14.9411 17.0522L8.79977 17.0522C8.87997 20.412 9.66082 23.1007 11.1381 25.1225C12.3031 26.7179 14.0673 28.0391 16.4268 29.0816C17.5116 29.5586 17.9801 30.8417 17.4736 31.9139L15.9541 35.1217C15.4645 36.1515 14.2531 36.6032 13.2063 36.1515C10.4121 34.9444 8.05264 33.4164 6.12797 31.5593C3.78114 29.2927 2.17304 26.7348 1.30355 23.8815C0.434012 21.0282 -0.000693456 17.1366 -0.000692593 12.1982L-0.000690829 2.11042C-0.000690626 0.945508 0.944822 -2.92568e-06 2.10973 -2.722e-06Z" fill="black"/>
<path d="M36.6786 36.1431C33.9182 34.9402 31.5714 33.4123 29.634 31.5593C27.2661 29.2927 25.6496 26.7433 24.7801 23.9111C23.9106 21.0789 23.4759 17.1746 23.4759 12.1982L23.4759 2.11042C23.4759 0.945466 24.4213 -2.92569e-06 25.5863 -2.722e-06L38.4177 -4.78488e-07C39.5826 -2.74801e-07 40.5281 0.945469 40.5281 2.11042L40.5281 14.9418C40.5281 16.1068 39.5826 17.0522 38.4177 17.0522L32.2763 17.0522C32.3565 20.4121 33.1374 23.1007 34.6147 25.1225C35.7796 26.7179 37.5439 28.0391 39.9034 29.0816C40.9882 29.5586 41.4567 30.8417 40.9502 31.9139L39.4349 35.1133C38.9452 36.1431 37.7254 36.599 36.6786 36.1431Z" fill="black"/>
</svg>
