<svg width="75" height="75" viewBox="0 0 75 75" fill="none" xmlns="http://www.w3.org/2000/svg">
<mask id="mask0_315_819" style="mask-type:luminance" maskUnits="userSpaceOnUse" x="0" y="0" width="76" height="75">
<path d="M0.00195312 7.62939e-06H75.0019V75H0.00195312V7.62939e-06Z" fill="white"/>
</mask>
<g mask="url(#mask0_315_819)">
<path d="M36.623 23.4375C37.4316 23.4375 38.0879 24.0938 38.0879 24.9023C38.0879 25.7109 37.4316 26.3672 36.623 26.3672C35.8145 26.3672 35.1582 25.7109 35.1582 24.9023C35.1582 24.0938 35.8145 23.4375 36.623 23.4375Z" fill="#645BE1"/>
<path d="M36.623 29.2969C37.4316 29.2969 38.0879 29.9531 38.0879 30.7617C38.0879 31.5703 37.4316 32.2266 36.623 32.2266C35.8145 32.2266 35.1582 31.5703 35.1582 30.7617C35.1582 29.9531 35.8145 29.2969 36.623 29.2969Z" fill="#645BE1"/>
<path d="M73.5371 16.1133H58.8887V1.46485" stroke="#645BE1" stroke-width="2.92969" stroke-miterlimit="10" stroke-linecap="round" stroke-linejoin="round"/>
<path d="M37.502 10.2539H53.0293" stroke="#645BE1" stroke-width="2.92969" stroke-miterlimit="10" stroke-linecap="round" stroke-linejoin="round"/>
<path d="M37.502 16.1133H53.0293" stroke="#645BE1" stroke-width="2.92969" stroke-miterlimit="10" stroke-linecap="round" stroke-linejoin="round"/>
<path d="M30.7637 24.9023C30.7637 31.9893 25.7305 37.9014 19.0449 39.2578C18.0986 39.4497 17.1187 39.5508 16.1152 39.5508C8.0249 39.5508 1.4668 32.9927 1.4668 24.9023C1.4668 16.812 8.0249 10.2539 16.1152 10.2539C17.1187 10.2539 18.0986 10.355 19.0449 10.5469C25.7305 11.9033 30.7637 17.8154 30.7637 24.9023Z" stroke="#645BE1" stroke-width="2.92969" stroke-miterlimit="10" stroke-linecap="round" stroke-linejoin="round"/>
<path d="M16.1152 33.6914C11.2681 33.6914 7.32617 29.7495 7.32617 24.9023" stroke="#645BE1" stroke-width="2.92969" stroke-miterlimit="10" stroke-linecap="round" stroke-linejoin="round"/>
<path d="M16.1152 10.2539V24.9023H30.7637" stroke="#645BE1" stroke-width="2.92969" stroke-miterlimit="10" stroke-linecap="round" stroke-linejoin="round"/>
<path d="M19.0449 39.2578V70.6055C19.0449 72.2241 20.356 73.5352 21.9746 73.5352H70.6074C72.2261 73.5352 73.5371 72.2241 73.5371 70.6055V16.1133L58.8887 1.46484H21.9746C20.356 1.46484 19.0449 2.77588 19.0449 4.39453V10.5469" stroke="#645BE1" stroke-width="2.92969" stroke-miterlimit="10" stroke-linecap="round" stroke-linejoin="round"/>
<path d="M30.7637 60.9375C30.7637 62.5562 29.4526 63.8672 27.834 63.8672C26.2153 63.8672 24.9043 62.5562 24.9043 60.9375C24.9043 59.3188 26.2153 58.0078 27.834 58.0078C28.6426 58.0078 29.375 58.3359 29.9053 58.8662C30.4355 59.3965 30.7637 60.1289 30.7637 60.9375Z" stroke="#645BE1" stroke-width="2.92969" stroke-miterlimit="10" stroke-linecap="round" stroke-linejoin="round"/>
<path d="M36.8955 51.29C36.3652 50.7598 36.0371 50.0273 36.0371 49.2188C36.0371 47.6001 37.3481 46.2891 38.9668 46.2891C40.5854 46.2891 41.8965 47.6001 41.8965 49.2188C41.8965 50.0273 41.5684 50.7598 41.0381 51.29C40.5078 51.8203 39.7754 52.1484 38.9668 52.1484C38.1582 52.1484 37.4258 51.8203 36.8955 51.29Z" stroke="#645BE1" stroke-width="2.92969" stroke-miterlimit="10" stroke-linecap="round" stroke-linejoin="round"/>
<path d="M52.1504 60.9375C52.1504 62.5562 50.8394 63.8672 49.2207 63.8672C47.6021 63.8672 46.291 62.5562 46.291 60.9375C46.291 60.1289 46.6191 59.3965 47.1494 58.8662C47.6797 58.3359 48.4121 58.0078 49.2207 58.0078C50.8394 58.0078 52.1504 59.3188 52.1504 60.9375Z" stroke="#645BE1" stroke-width="2.92969" stroke-miterlimit="10" stroke-linecap="round" stroke-linejoin="round"/>
<path d="M67.2383 43.3594C67.2383 44.978 65.9272 46.2891 64.3086 46.2891C62.6899 46.2891 61.3789 44.978 61.3789 43.3594C61.3789 41.7407 62.6899 40.4297 64.3086 40.4297C65.9272 40.4297 67.2383 41.7407 67.2383 43.3594Z" stroke="#645BE1" stroke-width="2.92969" stroke-miterlimit="10" stroke-linecap="round" stroke-linejoin="round"/>
<path d="M29.9062 58.8662L36.8965 51.29" stroke="#645BE1" stroke-width="2.92969" stroke-miterlimit="10" stroke-linecap="round" stroke-linejoin="round"/>
<path d="M41.0391 51.29L47.1504 58.8662" stroke="#645BE1" stroke-width="2.92969" stroke-miterlimit="10" stroke-linecap="round" stroke-linejoin="round"/>
<path d="M50.8477 58.5L62.6836 45.7969" stroke="#645BE1" stroke-width="2.92969" stroke-miterlimit="10" stroke-linecap="round" stroke-linejoin="round"/>
<path d="M42.4824 24.9023H64.748" stroke="#645BE1" stroke-width="2.92969" stroke-miterlimit="10" stroke-linecap="round" stroke-linejoin="round"/>
<path d="M42.4824 30.7617H64.748" stroke="#645BE1" stroke-width="2.92969" stroke-miterlimit="10" stroke-linecap="round" stroke-linejoin="round"/>
</g>
</svg>
