<svg width="75" height="66" viewBox="0 0 75 66" fill="none" xmlns="http://www.w3.org/2000/svg">
<path fill-rule="evenodd" clip-rule="evenodd" d="M10.9488 39.4177H5.49924V63.7586H10.9488C12.0418 63.7586 12.9401 62.8806 12.9401 61.8124V41.364C12.9401 40.2957 12.042 39.4177 10.9488 39.4177ZM40.1995 22.1308C44.3895 22.1308 47.7868 25.451 47.7868 29.5462C47.7868 33.6413 44.3895 36.9615 40.1995 36.9615C36.0094 36.9615 32.6122 33.6412 32.6122 29.5462C32.6122 25.4511 36.0095 22.1308 40.1995 22.1308ZM5.44827 32.3964H9.72312V23.2758C9.72312 22.6939 10.2058 22.2222 10.8011 22.2222H11.4909L7.58585 18.4056L3.6806 22.2222H4.37039C4.96577 22.2222 5.44842 22.6939 5.44842 23.2758L5.44827 32.3964ZM10.8011 34.5036H4.37039C3.77501 34.5036 3.29236 34.0319 3.29236 33.45V24.3295L1.07824 24.3294C0.12218 24.3294 -0.360931 23.1927 0.316072 22.531L6.82368 16.1711C7.24457 15.7597 7.92712 15.7597 8.34801 16.1711L14.8482 22.524C15.5362 23.19 15.0523 24.3297 14.0935 24.3297H11.8792V33.4502C11.8792 34.0319 11.3965 34.5036 10.8011 34.5036ZM28.1738 20.3238V10.6558C28.1738 10.074 28.6564 9.60225 29.2518 9.60225H29.9414L26.0363 5.78554L22.1311 9.60225H22.8209C23.4163 9.60225 23.8989 10.074 23.8989 10.6558V29.0544H25.0234V27.1959C25.0234 26.614 25.5061 26.1423 26.1015 26.1423H27.577C27.8647 25.1161 28.2766 24.1474 28.811 23.2293L27.7681 22.21C27.3472 21.7986 27.3472 21.1316 27.7681 20.7202L28.1738 20.3238ZM25.0233 31.1616V31.8966C25.0233 32.4785 25.5059 32.9502 26.1013 32.9502H27.5771C27.8648 33.9759 28.2769 34.9451 28.8113 35.8627L27.768 36.8825C27.3471 37.2938 27.3471 37.9609 27.768 38.3722L31.169 41.6962C31.5899 42.1075 32.2724 42.1075 32.6933 41.6962L33.7365 40.6766C34.6758 41.1989 35.6668 41.6015 36.7167 41.8828V43.3252C36.7167 43.9071 37.1993 44.3788 37.7947 44.3788H42.6044C43.1998 44.3788 43.6825 43.9071 43.6825 43.3252V41.883C44.7322 41.602 45.7238 41.199 46.6628 40.6769L47.7058 41.6963C48.1267 42.1077 48.8093 42.1077 49.2302 41.6963L52.631 38.3724C53.0519 37.961 53.0519 37.294 52.631 36.8826L51.5881 35.8633C52.1227 34.9452 52.5345 33.9767 52.8222 32.9503H54.2977C54.8931 32.9503 55.3757 32.4786 55.3757 31.8967V27.196C55.3757 26.6142 54.8931 26.1425 54.2977 26.1425H52.822C52.5345 25.1167 52.1222 24.1472 51.5878 23.2296L52.6309 22.2101C53.0518 21.7988 53.0518 21.1317 52.6309 20.7204L49.23 17.3964C48.8091 16.9851 48.1266 16.9851 47.7057 17.3964L47.5551 17.5436V8.46693H49.769C50.7279 8.46693 51.2117 7.32725 50.5238 6.66138L44.024 0.308514C43.6032 -0.102838 42.9206 -0.102838 42.4997 0.308514L35.9923 6.66845C35.3152 7.33011 35.7985 8.46678 36.7544 8.46678L38.9684 8.46693V14.714H37.7947C37.1993 14.714 36.7167 15.1857 36.7167 15.7676V17.2098C35.6699 17.4902 34.6774 17.8927 33.7364 18.4159L32.6932 17.3964C32.2723 16.9851 31.5897 16.9851 31.1688 17.3964L30.3297 18.2166V11.7094H32.5436C33.5025 11.7094 33.9863 10.5698 33.2984 9.90388L26.7982 3.55102C26.3773 3.13967 25.6948 3.13967 25.2739 3.55102L18.7663 9.91096C18.0892 10.5726 18.5724 11.7093 19.5284 11.7093L21.7425 11.7094V30.108C21.7425 30.6899 22.2252 31.1616 22.8206 31.1616H25.0233ZM30.3297 21.1961V21.7342L30.9332 22.3269C31.288 22.673 31.3569 23.2264 31.0693 23.6507C30.6866 24.2156 30.3569 24.8196 30.0871 25.4557C29.8316 26.0582 29.6319 26.6801 29.494 27.3151C29.4335 27.8408 28.977 28.2495 28.4229 28.2495H27.1792V30.843L28.4231 30.8472C28.9344 30.8467 29.3756 31.2009 29.4759 31.6908C29.7207 32.8781 30.3266 34.4055 31.0333 35.387C31.3529 35.7998 31.3202 36.3901 30.9351 36.7664L30.0542 37.6272L31.9309 39.4614L32.8131 38.6019C33.1741 38.2485 33.7418 38.1933 34.1676 38.4689C34.7456 38.8429 35.3636 39.1655 36.0143 39.429C36.6308 39.6789 37.2671 39.8741 37.9168 40.0089C38.4546 40.0684 38.8726 40.5144 38.8726 41.0558V42.2714H41.5262L41.5306 41.0559C41.5301 40.5562 41.8925 40.125 42.3938 40.027C43.609 39.7877 45.1714 39.1959 46.1759 38.505C46.5982 38.1927 47.2024 38.2246 47.5874 38.601L48.468 39.4615L50.3447 37.6274L49.4658 36.7655C49.1042 36.4127 49.0477 35.8579 49.3296 35.4418C49.7123 34.8769 50.0421 34.2729 50.3119 33.6368C50.5674 33.0343 50.7671 32.4124 50.905 31.7775C50.9655 31.2518 51.422 30.8431 51.9761 30.8431H53.2198V28.2496L51.9759 28.2454C51.4646 28.2459 51.0234 27.8917 50.9231 27.4018C50.6783 26.2138 50.0729 24.6873 49.3658 23.7053C49.0463 23.2925 49.0789 22.7022 49.4641 22.3259L50.3447 21.4654L48.468 19.6313L47.5862 20.4902C47.2252 20.8436 46.6575 20.8989 46.2317 20.6233C45.6576 20.2518 45.02 19.9205 44.3849 19.6633C43.7684 19.4136 43.1321 19.2184 42.4823 19.0837C41.9444 19.0245 41.5262 18.5784 41.5262 18.0369V16.8213H38.8726L38.8683 18.0369C38.8687 18.5366 38.5064 18.9678 38.0051 19.0658C36.7971 19.3037 35.2298 19.8951 34.2232 20.5876C33.8008 20.9001 33.1968 20.8682 32.8116 20.4917L31.931 19.6313L30.3297 21.1961ZM45.3993 17.7989L43.6825 17.2096V15.7676C43.6825 15.1857 43.1998 14.714 42.6044 14.714H41.1245V7.41349C41.1245 6.83161 40.6418 6.3599 40.0464 6.3599H39.3568L43.2619 2.54333L47.1671 6.3599H46.4773C45.882 6.3599 45.3993 6.83161 45.3993 7.41349V17.7989ZM44.0402 25.7927C41.9193 23.7199 38.4799 23.7198 36.3589 25.7927C34.2381 27.8655 34.2381 31.2269 36.3589 33.2998C38.4799 35.3727 41.9193 35.3727 44.0402 33.2998C46.1612 31.2269 46.161 27.8655 44.0402 25.7927ZM15.1826 45.3562V58.4774C21.5896 59.478 26.7076 63.7477 31.0932 63.7599L51.3922 63.8165L71.2653 52.603C74.6292 50.7049 71.6939 45.709 68.3175 47.6144L51.9334 56.859C51.7625 56.963 51.5607 57.0229 51.3446 57.0229L34.8304 57.0141C34.2137 57.0141 33.7138 56.5255 33.7138 55.9227C33.7138 55.3199 34.2138 54.8312 34.8304 54.8312L49.508 54.839C48.2093 48.647 37.501 50.484 32.0097 50.3123C31.6918 50.3025 31.3955 50.1623 31.1907 49.9243C29.1923 47.6073 27.1185 46.4452 24.5265 45.8782C22.0447 45.3353 19.0328 45.3102 15.1826 45.3562ZM4.37809 37.2262H10.9488C13.2795 37.2262 15.1824 39.086 15.1824 41.364V43.1729C19.1691 43.1255 22.3016 43.1544 25.0079 43.7465C27.9421 44.3884 30.3103 45.663 32.5618 48.1401C33.4392 48.1479 34.4608 48.1123 35.5541 48.0743C41.8905 47.8541 50.4332 47.5587 51.715 54.4626L67.1972 45.7242C70.5696 43.8213 74.4179 45.9175 74.9466 49.5465C75.2109 51.3615 74.5164 53.288 72.3775 54.4948L52.2451 65.8548C52.0695 65.9533 51.878 66.0002 51.6888 66L31.0929 65.9428C26.0291 65.9288 21.1467 61.7676 15.1823 60.6959V61.8123C15.1823 64.0901 13.2794 65.9499 10.9487 65.9499H4.37809C3.75884 65.9499 3.25694 65.4592 3.25694 64.8541V38.322C3.25694 37.7168 3.75884 37.2262 4.37809 37.2262Z" fill="black"/>
</svg>
